SplineFontDB: 3.0
FontName: Coda-Heavy
FullName: Coda Heavy
FamilyName: Coda
Weight: Heavy
Copyright: Copyright (c) 2010, 2011 Vernon Adams (vern@newtypography.co.uk), with Reserved Font Name "Coda" and "Coda Caption".
Version: 1.002
ItalicAngle: 0
UnderlinePosition: -103
UnderlineWidth: 102
Ascent: 1638
Descent: 410
sfntRevision: 0x00010000
LayerCount: 2
Layer: 0 1 "Back"  1
Layer: 1 1 "Fore"  0
XUID: [1021 288 713564382 16366709]
FSType: 0
OS2Version: 3
OS2_WeightWidthSlopeOnly: 0
OS2_UseTypoMetrics: 1
CreationTime: 1313076410
ModificationTime: 1318204719
PfmFamily: 17
TTFWeight: 800
TTFWidth: 5
LineGap: 0
VLineGap: 0
Panose: 2 0 5 5 2 0 0 2 0 4
OS2TypoAscent: 437
OS2TypoAOffset: 1
OS2TypoDescent: -328
OS2TypoDOffset: 1
OS2TypoLinegap: 0
OS2WinAscent: -300
OS2WinAOffset: 1
OS2WinDescent: 0
OS2WinDOffset: 1
HheadAscent: -300
HheadAOffset: 1
HheadDescent: 0
HheadDOffset: 1
OS2SubXSize: 1331
OS2SubYSize: 1228
OS2SubXOff: 0
OS2SubYOff: 153
OS2SupXSize: 1331
OS2SupYSize: 1228
OS2SupXOff: 0
OS2SupYOff: 716
OS2StrikeYSize: 102
OS2StrikeYPos: 780
OS2Vendor: 'newt'
OS2CodePages: 00000001.00000000
OS2UnicodeRanges: 00000007.00000000.00000000.00000000
Lookup: 258 0 0 "'kern' Horizontal Kerning lookup 0"  {"'kern' Horizontal Kerning lookup 0 subtable"  } ['kern' ('DFLT' <'dflt' > ) ]
MarkAttachClasses: 1
DEI: 91125
KernClass2: 2+ 3 "'kern' Horizontal Kerning lookup 0 subtable" 
 1 A
 1 T
 1 T
 11 a c d e o q
 0 {} -107 {} -17 {} 0 {} 0 {} -102 {}
ShortTable: maxp 16
  1
  0
  329
  69
  5
  62
  4
  2
  0
  1
  1
  0
  64
  0
  3
  2
EndShort
LangName: 1033 "" "" "" "FontForge 2.0 : Coda Heavy : 9-10-2011" "" "" "" "" "" "" "" "" "" "" "http://scripts.sil.org/OFL" 
GaspTable: 1 65535 15
Encoding: UnicodeBmp
UnicodeInterp: none
NameList: Adobe Glyph List
DisplaySize: -48
AntiAlias: 1
FitToEm: 1
WinInfo: 50 25 10
BeginPrivate: 0
EndPrivate
BeginChars: 65542 329

StartChar: exclam
Encoding: 33 33 4
Width: 722
GlyphClass: 2
Flags: W
LayerCount: 2
Fore
SplineSet
375 539 m 0,0,1
 330 539 330 539 311 620 c 128,-1,2
 292 701 292 701 207 1001.5 c 128,-1,3
 122 1302 122 1302 122 1409.5 c 128,-1,4
 122 1517 122 1517 196 1574 c 128,-1,5
 270 1631 270 1631 374 1631 c 128,-1,6
 478 1631 478 1631 555.5 1572.5 c 128,-1,7
 633 1514 633 1514 633 1407 c 128,-1,8
 633 1300 633 1300 511 886 c 0,9,10
 457 702 457 702 442 638 c 128,-1,11
 427 574 427 574 410.5 556.5 c 128,-1,12
 394 539 394 539 375 539 c 0,0,1
171 171 m 128,-1,14
 171 270 171 270 231.5 325.5 c 128,-1,15
 292 381 292 381 375 381 c 128,-1,16
 458 381 458 381 518.5 325.5 c 128,-1,17
 579 270 579 270 579 171 c 128,-1,18
 579 72 579 72 518.5 16.5 c 128,-1,19
 458 -39 458 -39 375 -39 c 128,-1,20
 292 -39 292 -39 231.5 16.5 c 128,-1,13
 171 72 171 72 171 171 c 128,-1,14
EndSplineSet
EndChar

StartChar: quotedbl
Encoding: 34 34 5
Width: 1213
GlyphClass: 2
Flags: W
LayerCount: 2
Fore
SplineSet
280 900.5 m 128,-1,1
 264 964 264 964 205.5 1171.5 c 128,-1,2
 147 1379 147 1379 147 1458.5 c 128,-1,3
 147 1538 147 1538 202 1583.5 c 128,-1,4
 257 1629 257 1629 334 1629 c 128,-1,5
 411 1629 411 1629 469.5 1581.5 c 128,-1,6
 528 1534 528 1534 528 1455.5 c 128,-1,7
 528 1377 528 1377 467 1170.5 c 128,-1,8
 406 964 406 964 395 916 c 0,9,10
 377 837 377 837 336.5 837 c 128,-1,0
 296 837 296 837 280 900.5 c 128,-1,1
777 900.5 m 128,-1,12
 761 964 761 964 702.5 1171.5 c 128,-1,13
 644 1379 644 1379 644 1458.5 c 128,-1,14
 644 1538 644 1538 699 1583.5 c 128,-1,15
 754 1629 754 1629 831 1629 c 128,-1,16
 908 1629 908 1629 966.5 1581.5 c 128,-1,17
 1025 1534 1025 1534 1025 1455.5 c 128,-1,18
 1025 1377 1025 1377 964 1170.5 c 128,-1,19
 903 964 903 964 892 916 c 0,20,21
 874 837 874 837 833.5 837 c 128,-1,11
 793 837 793 837 777 900.5 c 128,-1,12
EndSplineSet
EndChar

StartChar: numbersign
Encoding: 35 35 6
Width: 1718
GlyphClass: 2
Flags: W
LayerCount: 2
Fore
SplineSet
1567 430 m 1,0,-1
 1402 430 l 1,1,-1
 1342 0 l 1,2,-1
 841 0 l 1,3,-1
 902 429 l 1,4,-1
 705 429 l 1,5,-1
 645 0 l 1,6,-1
 143 0 l 1,7,-1
 204 429 l 1,8,-1
 70 429 l 1,9,-1
 96 621 l 1,10,-1
 234 621 l 1,11,-1
 285 993 l 1,12,-1
 137 993 l 1,13,-1
 166 1200 l 1,14,-1
 319 1200 l 1,15,-1
 373 1595 l 1,16,-1
 872 1595 l 1,17,-1
 819 1200 l 1,18,-1
 1016 1200 l 1,19,-1
 1071 1595 l 1,20,-1
 1569 1595 l 1,21,-1
 1516 1200 l 1,22,-1
 1664 1200 l 1,23,-1
 1634 994 l 1,24,-1
 1483 994 l 1,25,-1
 1431 621 l 1,26,-1
 1594 621 l 1,27,-1
 1567 430 l 1,0,-1
734 621 m 1,28,-1
 931 621 l 1,29,-1
 983 993 l 1,30,-1
 786 993 l 1,31,-1
 734 621 l 1,28,-1
EndSplineSet
EndChar

StartChar: dollar
Encoding: 36 36 7
Width: 1434
GlyphClass: 2
Flags: W
LayerCount: 2
Fore
SplineSet
685 -168 m 1,0,-1
 685 22 l 1,1,2
 435 24 435 24 310.5 68 c 128,-1,3
 186 112 186 112 139 206.5 c 128,-1,4
 92 301 92 301 101 482 c 1,5,-1
 600 450 l 1,6,-1
 600 283 l 1,7,-1
 685 283 l 1,8,-1
 685 586 l 1,9,10
 478 625 478 625 381.5 661 c 128,-1,11
 285 697 285 697 216 750 c 0,12,13
 70 864 70 864 70 1080.5 c 128,-1,14
 70 1297 70 1297 186 1407 c 0,15,16
 323 1538 323 1538 685 1544 c 1,17,-1
 685 1730 l 1,18,-1
 764 1730 l 1,19,-1
 764 1545 l 1,20,21
 1007 1543 1007 1543 1147.5 1497.5 c 128,-1,22
 1288 1452 1288 1452 1324 1344 c 128,-1,23
 1360 1236 1360 1236 1346 1092 c 1,24,-1
 847 1122 l 1,25,-1
 847 1283 l 1,26,-1
 764 1283 l 1,27,-1
 764 997 l 1,28,29
 1026 947 1026 947 1142 888.5 c 128,-1,30
 1258 830 1258 830 1308 756 c 1,31,32
 1378 649 1378 649 1378 522 c 0,33,34
 1378 183 1378 183 1150 88 c 0,35,36
 1004 27 1004 27 764 23 c 1,37,-1
 764 -168 l 1,38,-1
 685 -168 l 1,0,-1
847 556 m 1,39,-1
 764 572 l 1,40,-1
 764 283 l 1,41,-1
 847 283 l 1,42,-1
 847 556 l 1,39,-1
600 1031 m 1,43,44
 603 1030 603 1030 635 1023 c 128,-1,45
 667 1016 667 1016 685 1012 c 1,46,-1
 685 1283 l 1,47,-1
 600 1283 l 1,48,-1
 600 1031 l 1,43,44
EndSplineSet
EndChar

StartChar: percent
Encoding: 37 37 8
Width: 2792
GlyphClass: 2
Flags: W
LayerCount: 2
Fore
SplineSet
623 1378 m 1,0,-1
 532 1378 l 1,1,-1
 532 833 l 1,2,-1
 623 833 l 1,3,-1
 623 1378 l 1,0,-1
671 619.5 m 128,-1,5
 633 618 633 618 580.5 618 c 128,-1,6
 528 618 528 618 500 618 c 0,7,8
 311 622 311 622 218 686.5 c 128,-1,9
 125 751 125 751 125 927 c 2,10,-1
 125 1286 l 2,11,12
 125 1397 125 1397 166.5 1461 c 128,-1,13
 208 1525 208 1525 255 1545 c 0,14,15
 342 1581 342 1581 413.5 1588 c 128,-1,16
 485 1595 485 1595 571.5 1595 c 128,-1,17
 658 1595 658 1595 737 1588 c 0,18,19
 1025 1562 1025 1562 1025 1288 c 2,20,-1
 1025 929 l 2,21,22
 1025 748 1025 748 917 681 c 0,23,24
 849 638 849 638 779 629.5 c 128,-1,4
 709 621 709 621 671 619.5 c 128,-1,5
2262 892 m 1,25,-1
 2172 892 l 1,26,-1
 2172 347 l 1,27,-1
 2262 347 l 1,28,-1
 2262 892 l 1,25,-1
2310 131 m 0,29,30
 2269 129 2269 129 2213.5 129 c 128,-1,31
 2158 129 2158 129 2083 132 c 128,-1,32
 2008 135 2008 135 1931 163 c 0,33,34
 1765 223 1765 223 1765 441 c 2,35,-1
 1765 798 l 2,36,37
 1765 975 1765 975 1872 1043 c 0,38,39
 1939 1086 1939 1086 2008.5 1095.5 c 128,-1,40
 2078 1105 2078 1105 2118 1107 c 128,-1,41
 2158 1109 2158 1109 2214 1109 c 128,-1,42
 2270 1109 2270 1109 2344.5 1106 c 128,-1,43
 2419 1103 2419 1103 2497 1076 c 0,44,45
 2665 1016 2665 1016 2665 799 c 2,46,-1
 2665 442 l 2,47,48
 2665 268 2665 268 2557 198 c 0,49,50
 2467 139 2467 139 2310 131 c 0,29,30
1779 1632 m 1,51,-1
 1403 -39 l 1,52,-1
 1015 -39 l 1,53,-1
 1395 1632 l 1,54,-1
 1779 1632 l 1,51,-1
EndSplineSet
EndChar

StartChar: ampersand
Encoding: 38 38 9
Width: 1653
GlyphClass: 2
Flags: W
LayerCount: 2
Fore
SplineSet
896 224 m 1,0,-1
 896 736 l 1,1,-1
 687 736 l 1,2,-1
 687 224 l 1,3,-1
 896 224 l 1,0,-1
359 861 m 1,4,-1
 247 873 l 2,5,6
 190 879 190 879 137 952.5 c 128,-1,7
 84 1026 84 1026 84 1198 c 0,8,9
 84 1496 84 1496 373 1586 c 0,10,11
 487 1621 487 1621 603.5 1626.5 c 128,-1,12
 720 1632 720 1632 806 1632 c 0,13,14
 1125 1632 1125 1632 1283.5 1539 c 128,-1,15
 1442 1446 1442 1446 1442 1238 c 0,16,17
 1442 1209 1442 1209 1438 1184 c 1,18,-1
 893 1184 l 1,19,-1
 893 1392 l 1,20,-1
 687 1392 l 1,21,-1
 687 929 l 1,22,-1
 896 929 l 1,23,-1
 896 1068 l 1,24,-1
 1442 1068 l 1,25,-1
 1442 929 l 1,26,-1
 1593 929 l 1,27,-1
 1593 736 l 1,28,-1
 1442 736 l 1,29,-1
 1442 513 l 2,30,31
 1442 180 1442 180 1309 72 c 0,32,33
 1208 -10 1208 -10 1006 -30 c 0,34,35
 906 -40 906 -40 788 -40 c 0,36,37
 460 -40 460 -40 313 22 c 0,38,39
 85 119 85 119 85 456 c 0,40,41
 85 559 85 559 112 642 c 0,42,43
 162 799 162 799 247 809 c 2,44,-1
 359 822 l 1,45,-1
 359 861 l 1,4,-1
EndSplineSet
EndChar

StartChar: quotesingle
Encoding: 39 39 10
Width: 629
GlyphClass: 2
Flags: W
LayerCount: 2
Fore
SplineSet
280 900.5 m 128,-1,1
 264 964 264 964 205.5 1171.5 c 128,-1,2
 147 1379 147 1379 147 1458.5 c 128,-1,3
 147 1538 147 1538 202 1583.5 c 128,-1,4
 257 1629 257 1629 334 1629 c 128,-1,5
 411 1629 411 1629 469.5 1581.5 c 128,-1,6
 528 1534 528 1534 528 1455.5 c 128,-1,7
 528 1377 528 1377 467 1170.5 c 128,-1,8
 406 964 406 964 395 916 c 0,9,10
 377 837 377 837 336.5 837 c 128,-1,0
 296 837 296 837 280 900.5 c 128,-1,1
EndSplineSet
EndChar

StartChar: parenleft
Encoding: 40 40 11
Width: 860
GlyphClass: 2
Flags: W
LayerCount: 2
Fore
SplineSet
51 827 m 128,-1,1
 51 980 51 980 75 1125 c 128,-1,2
 99 1270 99 1270 150 1400.5 c 128,-1,3
 201 1531 201 1531 273.5 1628.5 c 128,-1,4
 346 1726 346 1726 450 1783.5 c 128,-1,5
 554 1841 554 1841 678 1841 c 2,6,-1
 771 1841 l 1,7,-1
 771 1562 l 1,8,-1
 706 1562 l 2,9,10
 629 1562 629 1562 570 1452.5 c 128,-1,11
 511 1343 511 1343 482 1177.5 c 128,-1,12
 453 1012 453 1012 453 827 c 128,-1,13
 453 642 453 642 482 481 c 128,-1,14
 511 320 511 320 570 215 c 128,-1,15
 629 110 629 110 706 110 c 2,16,-1
 771 110 l 1,17,-1
 771 -169 l 1,18,-1
 678 -169 l 2,19,20
 554 -169 554 -169 450 -113.5 c 128,-1,21
 346 -58 346 -58 273.5 37 c 128,-1,22
 201 132 201 132 150 260 c 128,-1,23
 99 388 99 388 75 531 c 128,-1,0
 51 674 51 674 51 827 c 128,-1,1
EndSplineSet
EndChar

StartChar: parenright
Encoding: 41 41 12
Width: 861
GlyphClass: 2
Flags: W
LayerCount: 2
Fore
SplineSet
810 827 m 128,-1,1
 810 674 810 674 786 531 c 128,-1,2
 762 388 762 388 711 260 c 128,-1,3
 660 132 660 132 587.5 37 c 128,-1,4
 515 -58 515 -58 411 -113.5 c 128,-1,5
 307 -169 307 -169 183 -169 c 2,6,-1
 90 -169 l 1,7,-1
 90 110 l 1,8,-1
 155 110 l 2,9,10
 232 110 232 110 291 215 c 128,-1,11
 350 320 350 320 379 481 c 128,-1,12
 408 642 408 642 408 827 c 128,-1,13
 408 1012 408 1012 379 1177.5 c 128,-1,14
 350 1343 350 1343 291 1452.5 c 128,-1,15
 232 1562 232 1562 155 1562 c 2,16,-1
 90 1562 l 1,17,-1
 90 1841 l 1,18,-1
 183 1841 l 2,19,20
 307 1841 307 1841 411 1783.5 c 128,-1,21
 515 1726 515 1726 587.5 1628.5 c 128,-1,22
 660 1531 660 1531 711 1400.5 c 128,-1,23
 762 1270 762 1270 786 1125 c 128,-1,0
 810 980 810 980 810 827 c 128,-1,1
EndSplineSet
EndChar

StartChar: asterisk
Encoding: 42 42 13
Width: 1321
GlyphClass: 2
Flags: W
LayerCount: 2
Fore
SplineSet
775 1027 m 1,0,1
 1058 1112 1058 1112 1122.5 1112 c 128,-1,2
 1187 1112 1187 1112 1220.5 1067.5 c 128,-1,3
 1254 1023 1254 1023 1254 962.5 c 128,-1,4
 1254 902 1254 902 1221.5 859.5 c 128,-1,5
 1189 817 1189 817 1125.5 817 c 128,-1,6
 1062 817 1062 817 775 899 c 1,7,8
 792 883 792 883 860.5 819 c 128,-1,9
 929 755 929 755 986.5 691.5 c 128,-1,10
 1044 628 1044 628 1044 575 c 128,-1,11
 1044 522 1044 522 991.5 476 c 128,-1,12
 939 430 939 430 874.5 430 c 128,-1,13
 810 430 810 430 771.5 495.5 c 128,-1,14
 733 561 733 561 663 840 c 1,15,16
 643 767 643 767 621 682 c 128,-1,17
 599 597 599 597 567 522 c 0,18,19
 527 430 527 430 440 430 c 0,20,21
 388 430 388 430 335 476.5 c 128,-1,22
 282 523 282 523 282 581 c 0,23,24
 282 608 282 608 296 630.5 c 128,-1,25
 310 653 310 653 319.5 667.5 c 128,-1,26
 329 682 329 682 347.5 702 c 128,-1,27
 366 722 366 722 379.5 736.5 c 128,-1,28
 393 751 393 751 418 775 c 128,-1,29
 443 799 443 799 458.5 813.5 c 128,-1,30
 474 828 474 828 504.5 856 c 128,-1,31
 535 884 535 884 551 899 c 1,32,33
 264 817 264 817 201 817 c 128,-1,34
 138 817 138 817 105.5 859.5 c 128,-1,35
 73 902 73 902 73 962.5 c 128,-1,36
 73 1023 73 1023 106.5 1067.5 c 128,-1,37
 140 1112 140 1112 197 1112 c 128,-1,38
 254 1112 254 1112 334.5 1089 c 128,-1,39
 415 1066 415 1066 472 1049.5 c 128,-1,40
 529 1033 529 1033 551 1027 c 1,41,42
 479 1095 479 1095 460 1114 c 128,-1,43
 441 1133 441 1133 416 1157 c 128,-1,44
 391 1181 391 1181 378 1196 c 2,45,-1
 346 1231 l 2,46,47
 282 1302 282 1302 282 1355.5 c 128,-1,48
 282 1409 282 1409 334.5 1453 c 128,-1,49
 387 1497 387 1497 453 1497 c 128,-1,50
 519 1497 519 1497 549 1447 c 128,-1,51
 579 1397 579 1397 602 1312.5 c 128,-1,52
 625 1228 625 1228 642 1161.5 c 128,-1,53
 659 1095 659 1095 663 1080 c 1,54,55
 723 1320 723 1320 743 1371 c 128,-1,56
 763 1422 763 1422 774 1440 c 0,57,58
 808 1497 808 1497 873.5 1497 c 128,-1,59
 939 1497 939 1497 992 1453 c 128,-1,60
 1045 1409 1045 1409 1045 1364 c 0,61,62
 1045 1293 1045 1293 942 1190 c 2,63,-1
 893 1141 l 2,64,65
 859 1107 859 1107 775 1027 c 1,0,1
EndSplineSet
EndChar

StartChar: plus
Encoding: 43 43 14
Width: 1328
GlyphClass: 2
Flags: W
LayerCount: 2
Fore
SplineSet
469 811 m 1,0,-1
 469 1192 l 1,1,-1
 861 1192 l 1,2,-1
 861 811 l 1,3,-1
 1225 811 l 1,4,-1
 1225 478 l 1,5,-1
 861 478 l 1,6,-1
 861 100 l 1,7,-1
 469 100 l 1,8,-1
 469 478 l 1,9,-1
 104 478 l 1,10,-1
 104 811 l 1,11,-1
 469 811 l 1,0,-1
EndSplineSet
EndChar

StartChar: comma
Encoding: 44 44 15
Width: 711
GlyphClass: 2
Flags: W
LayerCount: 2
Fore
SplineSet
193 62.5 m 128,-1,1
 141 117 141 117 141 210 c 128,-1,2
 141 303 141 303 201.5 356 c 128,-1,3
 262 409 262 409 355 409 c 128,-1,4
 448 409 448 409 501.5 341 c 128,-1,5
 555 273 555 273 555 186 c 128,-1,6
 555 99 555 99 531.5 28.5 c 128,-1,7
 508 -42 508 -42 465 -101 c 128,-1,8
 422 -160 422 -160 354.5 -197 c 128,-1,9
 287 -234 287 -234 208 -234 c 0,10,11
 186 -234 186 -234 164 -231 c 1,12,-1
 164 -122 l 1,13,14
 227 -121 227 -121 271.5 -88.5 c 128,-1,15
 316 -56 316 -56 320 0 c 1,16,0
 245 8 245 8 193 62.5 c 128,-1,1
EndSplineSet
EndChar

StartChar: hyphen
Encoding: 45 45 16
Width: 1328
GlyphClass: 2
Flags: W
LayerCount: 2
Fore
SplineSet
1165 811 m 1,0,-1
 1165 478 l 1,1,-1
 164 478 l 1,2,-1
 164 811 l 1,3,-1
 1165 811 l 1,0,-1
EndSplineSet
EndChar

StartChar: period
Encoding: 46 46 17
Width: 670
GlyphClass: 2
Flags: W
LayerCount: 2
Fore
SplineSet
136 171 m 128,-1,1
 136 270 136 270 196.5 325.5 c 128,-1,2
 257 381 257 381 340 381 c 128,-1,3
 423 381 423 381 483.5 325.5 c 128,-1,4
 544 270 544 270 544 171 c 128,-1,5
 544 72 544 72 483.5 16.5 c 128,-1,6
 423 -39 423 -39 340 -39 c 128,-1,7
 257 -39 257 -39 196.5 16.5 c 128,-1,0
 136 72 136 72 136 171 c 128,-1,1
EndSplineSet
EndChar

StartChar: slash
Encoding: 47 47 18
Width: 1056
GlyphClass: 2
Flags: W
LayerCount: 2
Fore
SplineSet
136 0 m 1,0,-1
 488 1595 l 1,1,-1
 922 1595 l 1,2,-1
 571 0 l 1,3,-1
 136 0 l 1,0,-1
EndSplineSet
EndChar

StartChar: zero
Encoding: 48 48 19
Width: 1469
GlyphClass: 2
Flags: W
LayerCount: 2
Fore
SplineSet
653 233 m 1,0,-1
 819 233 l 1,1,-1
 819 1359 l 1,2,-1
 653 1359 l 1,3,-1
 653 233 l 1,0,-1
740 -39 m 0,4,5
 388 -39 388 -39 256 38 c 0,6,7
 89 135 89 135 89 352 c 2,8,-1
 89 1242 l 2,9,10
 89 1417 89 1417 190 1507 c 0,11,12
 255 1566 255 1566 322 1586 c 0,13,14
 479 1633 479 1633 738.5 1633 c 128,-1,15
 998 1633 998 1633 1125.5 1593 c 128,-1,16
 1253 1553 1253 1553 1318 1469.5 c 128,-1,17
 1383 1386 1383 1386 1383 1242 c 2,18,-1
 1383 352 l 2,19,20
 1383 171 1383 171 1277.5 76.5 c 128,-1,21
 1172 -18 1172 -18 949 -33 c 0,22,23
 856 -39 856 -39 740 -39 c 0,4,5
EndSplineSet
EndChar

StartChar: one
Encoding: 49 49 20
Width: 961
GlyphClass: 2
Flags: W
LayerCount: 2
Fore
SplineSet
41 1511 m 1,0,1
 249 1511 249 1511 388 1595 c 1,2,-1
 866 1595 l 1,3,-1
 866 0 l 1,4,-1
 262 0 l 1,5,-1
 262 1291 l 1,6,-1
 41 1291 l 1,7,-1
 41 1511 l 1,0,1
EndSplineSet
EndChar

StartChar: two
Encoding: 50 50 21
Width: 1403
GlyphClass: 2
Flags: W
LayerCount: 2
Fore
SplineSet
78 1064 m 1,0,1
 76 1110 76 1110 76 1124 c 0,2,3
 76 1467 76 1467 332 1572 c 0,4,5
 479 1633 479 1633 718 1633 c 0,6,7
 1043 1633 1043 1633 1196 1516 c 128,-1,8
 1349 1399 1349 1399 1349 1125 c 0,9,10
 1349 999 1349 999 1294 880 c 1,11,12
 1261 811 1261 811 1177.5 737 c 128,-1,13
 1094 663 1094 663 1015.5 623 c 128,-1,14
 937 583 937 583 901 565.5 c 128,-1,15
 865 548 865 548 862.5 547 c 128,-1,16
 860 546 860 546 811.5 522 c 128,-1,17
 763 498 763 498 696.5 442.5 c 128,-1,18
 630 387 630 387 630 301 c 1,19,-1
 1277 301 l 1,20,-1
 1277 1 l 1,21,-1
 78 1 l 1,22,-1
 78 201 l 2,23,24
 78 527 78 527 278 706 c 0,25,26
 390 806 390 806 573 890 c 1,27,28
 687 946 687 946 707.5 964 c 128,-1,29
 728 982 728 982 755 1009 c 128,-1,30
 782 1036 782 1036 782 1086 c 2,31,-1
 782 1358 l 1,32,-1
 630 1358 l 1,33,-1
 630 1064 l 1,34,-1
 78 1064 l 1,0,1
EndSplineSet
EndChar

StartChar: three
Encoding: 51 51 22
Width: 1436
GlyphClass: 2
Flags: W
LayerCount: 2
Fore
SplineSet
1163 820 m 1,0,1
 1366 745 1366 745 1366 510 c 0,2,3
 1366 149 1366 149 1115 31 c 0,4,5
 966 -39 966 -39 716 -39 c 0,6,7
 384 -39 384 -39 227.5 97.5 c 128,-1,8
 71 234 71 234 71 517 c 0,9,10
 71 569 71 569 75 613 c 1,11,-1
 627 613 l 1,12,-1
 627 235 l 1,13,-1
 799 235 l 1,14,-1
 799 707 l 1,15,-1
 540 707 l 1,16,-1
 540 931 l 1,17,-1
 799 931 l 1,18,-1
 799 1361 l 1,19,-1
 627 1361 l 1,20,-1
 627 1024 l 1,21,-1
 75 1024 l 1,22,23
 72 1068 72 1068 72 1108 c 0,24,25
 72 1399 72 1399 232 1515.5 c 128,-1,26
 392 1632 392 1632 718.5 1632 c 128,-1,27
 1045 1632 1045 1632 1204.5 1517.5 c 128,-1,28
 1364 1403 1364 1403 1364 1113 c 0,29,30
 1364 900 1364 900 1163 820 c 1,0,1
EndSplineSet
EndChar

StartChar: four
Encoding: 52 52 23
Width: 1459
GlyphClass: 2
Flags: W
LayerCount: 2
Fore
SplineSet
1377 0 m 1,0,-1
 865 0 l 1,1,-1
 865 240 l 1,2,-1
 73 240 l 1,3,-1
 73 657 l 1,4,-1
 327 1595 l 1,5,-1
 900 1595 l 1,6,-1
 649 657 l 1,7,-1
 649 603 l 1,8,-1
 865 603 l 1,9,-1
 865 938 l 1,10,-1
 1377 938 l 1,11,-1
 1377 0 l 1,0,-1
EndSplineSet
EndChar

StartChar: five
Encoding: 53 53 24
Width: 1429
GlyphClass: 2
Flags: W
LayerCount: 2
Fore
SplineSet
1314 888 m 0,0,1
 1364 761 1364 761 1364 569 c 128,-1,2
 1364 377 1364 377 1330 263.5 c 128,-1,3
 1296 150 1296 150 1215.5 82 c 128,-1,4
 1135 14 1135 14 1016.5 -12.5 c 128,-1,5
 898 -39 898 -39 751 -39 c 128,-1,6
 604 -39 604 -39 518 -30 c 0,7,8
 322 -8 322 -8 209.5 75 c 128,-1,9
 97 158 97 158 75 331 c 0,10,11
 66 398 66 398 66 474 c 1,12,-1
 616 474 l 1,13,-1
 616 236 l 1,14,-1
 797 236 l 1,15,-1
 797 838 l 1,16,-1
 616 838 l 1,17,-1
 616 655 l 1,18,-1
 83 655 l 1,19,-1
 136 1596 l 1,20,-1
 1229 1596 l 1,21,-1
 1229 1299 l 1,22,-1
 638 1299 l 1,23,-1
 604 998 l 1,24,25
 696 1105 696 1105 962 1105 c 128,-1,26
 1228 1105 1228 1105 1314 888 c 0,0,1
EndSplineSet
EndChar

StartChar: six
Encoding: 54 54 25
Width: 1448
GlyphClass: 2
Flags: W
LayerCount: 2
Fore
SplineSet
636 236 m 1,0,-1
 816 236 l 1,1,-1
 816 798 l 1,2,-1
 636 798 l 1,3,-1
 636 236 l 1,0,-1
1329 1237 m 1,4,-1
 1331 1158 l 1,5,-1
 800 1158 l 1,6,-1
 800 1369 l 1,7,-1
 637 1369 l 1,8,-1
 637 1068 l 1,9,-1
 761 1068 l 2,10,11
 939 1068 939 1068 1054 1042 c 128,-1,12
 1169 1016 1169 1016 1244 952 c 128,-1,13
 1319 888 1319 888 1350.5 785 c 128,-1,14
 1382 682 1382 682 1382 534 c 0,15,16
 1382 260 1382 260 1268 127 c 0,17,18
 1129 -36 1129 -36 718 -39 c 1,19,20
 238 -39 238 -39 126 234 c 0,21,22
 85 334 85 334 85 476 c 2,23,-1
 85 1056 l 2,24,25
 85 1379 85 1379 245 1505.5 c 128,-1,26
 405 1632 405 1632 717 1632 c 0,27,28
 939 1632 939 1632 1063 1594 c 0,29,30
 1329 1511 1329 1511 1329 1237 c 1,4,-1
EndSplineSet
EndChar

StartChar: seven
Encoding: 55 55 26
Width: 991
GlyphClass: 2
Flags: W
LayerCount: 2
Fore
SplineSet
942 1595 m 1,0,-1
 942 1351 l 1,1,-1
 716 0 l 1,2,-1
 112 0 l 1,3,-1
 334 1354 l 1,4,-1
 40 1354 l 1,5,-1
 40 1595 l 1,6,-1
 942 1595 l 1,0,-1
EndSplineSet
EndChar

StartChar: eight
Encoding: 56 56 27
Width: 1427
GlyphClass: 2
Flags: W
LayerCount: 2
Fore
SplineSet
119 1181 m 0,0,1
 119 1559 119 1559 520 1618 c 0,2,3
 609 1631 609 1631 733 1631 c 0,4,5
 995 1631 995 1631 1152.5 1532 c 128,-1,6
 1310 1433 1310 1433 1310 1172 c 128,-1,7
 1310 911 1310 911 1149 864 c 1,8,9
 1225 848 1225 848 1275 792 c 0,10,11
 1368 686 1368 686 1368 470 c 0,12,13
 1368 202 1368 202 1227 81 c 128,-1,14
 1086 -40 1086 -40 698 -40 c 128,-1,15
 310 -40 310 -40 170 120 c 1,16,17
 64 239 64 239 64 470 c 0,18,19
 64 811 64 811 251 864 c 1,20,21
 119 911 119 911 119 1181 c 0,0,1
640 1355 m 1,22,-1
 640 960 l 1,23,-1
 794 960 l 1,24,-1
 794 1355 l 1,25,-1
 640 1355 l 1,22,-1
628 235 m 1,26,-1
 794 235 l 1,27,-1
 794 720 l 1,28,-1
 628 720 l 1,29,-1
 628 235 l 1,26,-1
EndSplineSet
EndChar

StartChar: nine
Encoding: 57 57 28
Width: 1445
GlyphClass: 2
Flags: W
LayerCount: 2
Fore
SplineSet
799 1358 m 1,0,-1
 628 1358 l 1,1,-1
 628 779 l 1,2,-1
 799 779 l 1,3,-1
 799 1358 l 1,0,-1
68 1047 m 0,4,5
 68 1368 68 1368 201 1492 c 0,6,7
 289 1574 289 1574 414.5 1601.5 c 128,-1,8
 540 1629 540 1629 694 1629 c 128,-1,9
 848 1629 848 1629 946 1614 c 0,10,11
 1156 1580 1156 1580 1260.5 1461.5 c 128,-1,12
 1365 1343 1365 1343 1365 1116 c 2,13,-1
 1365 520 l 2,14,15
 1365 148 1365 148 1127 32 c 0,16,17
 979 -40 979 -40 733 -40 c 0,18,19
 125 -40 125 -40 115 328 c 0,20,21
 114 362 114 362 114 424 c 1,22,-1
 645 424 l 1,23,-1
 645 225 l 1,24,-1
 803 225 l 1,25,-1
 803 508 l 1,26,-1
 576 508 l 2,27,28
 282 508 282 508 175 643 c 128,-1,29
 68 778 68 778 68 1047 c 0,4,5
EndSplineSet
EndChar

StartChar: colon
Encoding: 58 58 29
Width: 691
GlyphClass: 2
Flags: W
LayerCount: 2
Fore
SplineSet
141 323 m 128,-1,1
 141 422 141 422 201.5 477.5 c 128,-1,2
 262 533 262 533 345 533 c 128,-1,3
 428 533 428 533 488.5 477.5 c 128,-1,4
 549 422 549 422 549 323 c 128,-1,5
 549 224 549 224 488.5 168.5 c 128,-1,6
 428 113 428 113 345 113 c 128,-1,7
 262 113 262 113 201.5 168.5 c 128,-1,0
 141 224 141 224 141 323 c 128,-1,1
141 1133 m 128,-1,9
 141 1232 141 1232 201.5 1287.5 c 128,-1,10
 262 1343 262 1343 345 1343 c 128,-1,11
 428 1343 428 1343 488.5 1287.5 c 128,-1,12
 549 1232 549 1232 549 1133 c 128,-1,13
 549 1034 549 1034 488.5 978.5 c 128,-1,14
 428 923 428 923 345 923 c 128,-1,15
 262 923 262 923 201.5 978.5 c 128,-1,8
 141 1034 141 1034 141 1133 c 128,-1,9
EndSplineSet
EndChar

StartChar: semicolon
Encoding: 59 59 30
Width: 710
GlyphClass: 2
Flags: W
LayerCount: 2
Fore
SplineSet
193 176.5 m 128,-1,1
 141 231 141 231 141 324 c 128,-1,2
 141 417 141 417 201.5 470 c 128,-1,3
 262 523 262 523 355 523 c 128,-1,4
 448 523 448 523 501.5 455 c 128,-1,5
 555 387 555 387 555 300 c 128,-1,6
 555 213 555 213 531.5 142.5 c 128,-1,7
 508 72 508 72 465 13 c 128,-1,8
 422 -46 422 -46 354.5 -83 c 128,-1,9
 287 -120 287 -120 208 -120 c 0,10,11
 186 -120 186 -120 164 -117 c 1,12,-1
 164 -8 l 1,13,14
 227 -7 227 -7 271.5 25.5 c 128,-1,15
 316 58 316 58 320 114 c 1,16,0
 245 122 245 122 193 176.5 c 128,-1,1
141 1133 m 128,-1,18
 141 1232 141 1232 201.5 1287.5 c 128,-1,19
 262 1343 262 1343 345 1343 c 128,-1,20
 428 1343 428 1343 488.5 1287.5 c 128,-1,21
 549 1232 549 1232 549 1133 c 128,-1,22
 549 1034 549 1034 488.5 978.5 c 128,-1,23
 428 923 428 923 345 923 c 128,-1,24
 262 923 262 923 201.5 978.5 c 128,-1,17
 141 1034 141 1034 141 1133 c 128,-1,18
EndSplineSet
EndChar

StartChar: less
Encoding: 60 60 31
Width: 1036
GlyphClass: 2
Flags: W
LayerCount: 2
Fore
SplineSet
75 1098 m 1,0,-1
 951 1597 l 1,1,-1
 951 1092 l 1,2,-1
 350 797 l 1,3,-1
 951 504 l 1,4,-1
 951 0 l 1,5,-1
 75 489 l 1,6,-1
 75 1098 l 1,0,-1
EndSplineSet
EndChar

StartChar: equal
Encoding: 61 61 32
Width: 1008
GlyphClass: 2
Flags: W
LayerCount: 2
Fore
SplineSet
923 336 m 1,0,-1
 923 0 l 1,1,-1
 89 0 l 1,2,-1
 89 336 l 1,3,-1
 923 336 l 1,0,-1
923 897 m 1,4,-1
 923 561 l 1,5,-1
 89 561 l 1,6,-1
 89 897 l 1,7,-1
 923 897 l 1,4,-1
EndSplineSet
EndChar

StartChar: greater
Encoding: 62 62 33
Width: 1035
GlyphClass: 2
Flags: W
LayerCount: 2
Fore
SplineSet
963 489 m 1,0,-1
 86 0 l 1,1,-1
 86 504 l 1,2,-1
 687 797 l 1,3,-1
 86 1092 l 1,4,-1
 86 1597 l 1,5,-1
 963 1098 l 1,6,-1
 963 489 l 1,0,-1
EndSplineSet
EndChar

StartChar: question
Encoding: 63 63 34
Width: 906
GlyphClass: 2
Flags: W
LayerCount: 2
Fore
SplineSet
441 1146 m 0,0,1
 441 1264 441 1264 296 1264 c 0,2,3
 221 1264 221 1264 105 1215 c 1,4,-1
 69 1562 l 1,5,6
 288 1632 288 1632 412 1632 c 0,7,8
 715 1632 715 1632 813 1499 c 0,9,10
 873 1418 873 1418 873 1334.5 c 128,-1,11
 873 1251 873 1251 850 1194.5 c 128,-1,12
 827 1138 827 1138 789.5 1092 c 128,-1,13
 752 1046 752 1046 706.5 1001 c 128,-1,14
 661 956 661 956 613.5 909 c 128,-1,15
 566 862 566 862 525 813 c 128,-1,16
 484 764 484 764 454.5 700.5 c 128,-1,17
 425 637 425 637 417.5 573.5 c 128,-1,18
 410 510 410 510 355 510 c 0,19,20
 294 510 294 510 294 586 c 0,21,22
 294 735 294 735 367.5 912.5 c 128,-1,23
 441 1090 441 1090 441 1146 c 0,0,1
153 171 m 128,-1,25
 153 270 153 270 213.5 325.5 c 128,-1,26
 274 381 274 381 357 381 c 128,-1,27
 440 381 440 381 500.5 325.5 c 128,-1,28
 561 270 561 270 561 171 c 128,-1,29
 561 72 561 72 500.5 16.5 c 128,-1,30
 440 -39 440 -39 357 -39 c 128,-1,31
 274 -39 274 -39 213.5 16.5 c 128,-1,24
 153 72 153 72 153 171 c 128,-1,25
EndSplineSet
EndChar

StartChar: at
Encoding: 64 64 35
Width: 2198
GlyphClass: 2
Flags: W
LayerCount: 2
Fore
SplineSet
664 887 m 1,0,-1
 663 956 l 1,1,2
 663 1161 663 1161 850 1216 c 0,3,4
 957 1248 957 1248 1138.5 1248 c 128,-1,5
 1320 1248 1320 1248 1420 1209 c 128,-1,6
 1520 1170 1520 1170 1563.5 1082.5 c 128,-1,7
 1607 995 1607 995 1607 837 c 2,8,-1
 1607 330 l 1,9,-1
 1777 330 l 1,10,-1
 1777 832 l 2,11,12
 1777 1156 1777 1156 1668 1278 c 0,13,14
 1589 1366 1589 1366 1468 1395 c 128,-1,15
 1347 1424 1347 1424 1176 1424 c 0,16,17
 856 1424 856 1424 700 1345.5 c 128,-1,18
 544 1267 544 1267 486 1110.5 c 128,-1,19
 428 954 428 954 428 741.5 c 128,-1,20
 428 529 428 529 442 416 c 128,-1,21
 456 303 456 303 494 216.5 c 128,-1,22
 532 130 532 130 587 79 c 128,-1,23
 642 28 642 28 736 -4 c 0,24,25
 895 -58 895 -58 1222 -58 c 0,26,27
 1367 -58 1367 -58 1704 22 c 1,28,-1
 1762 -233 l 1,29,30
 1519 -393 1519 -393 1240 -393 c 0,31,32
 756 -393 756 -393 512 -279 c 0,33,34
 324 -191 324 -191 228 -34 c 1,35,36
 74 213 74 213 74 686 c 128,-1,37
 74 1159 74 1159 242.5 1400 c 128,-1,38
 411 1641 411 1641 764 1709 c 0,39,40
 929 1741 929 1741 1170.5 1741 c 128,-1,41
 1412 1741 1412 1741 1594.5 1695 c 128,-1,42
 1777 1649 1777 1649 1899 1545.5 c 128,-1,43
 2021 1442 2021 1442 2077 1278.5 c 128,-1,44
 2133 1115 2133 1115 2133 878 c 0,45,46
 2133 532 2133 532 2064.5 379.5 c 128,-1,47
 1996 227 1996 227 1876 157.5 c 128,-1,48
 1756 88 1756 88 1553 88 c 1,49,50
 1291 93 1291 93 1202 239 c 1,51,52
 1101 113 1101 113 943 113 c 128,-1,53
 785 113 785 113 701.5 183 c 128,-1,54
 618 253 618 253 613 405 c 0,55,56
 612 435 612 435 612 493 c 0,57,58
 612 674 612 674 691 755 c 128,-1,59
 770 836 770 836 935 836 c 128,-1,60
 1100 836 1100 836 1175 788 c 1,61,-1
 1175 1022 l 1,62,-1
 1116 1022 l 1,63,-1
 1116 887 l 1,64,-1
 664 887 l 1,0,-1
1081 641 m 1,65,-1
 1081 336 l 1,66,-1
 1174 336 l 1,67,-1
 1174 641 l 1,68,-1
 1081 641 l 1,65,-1
EndSplineSet
EndChar

StartChar: A
Encoding: 65 65 36
Width: 1565
GlyphClass: 2
Flags: W
LayerCount: 2
Fore
SplineSet
677 366 m 1,0,-1
 622 0 l 1,1,-1
 36 0 l 1,2,-1
 328 1595 l 1,3,-1
 1235 1595 l 1,4,-1
 1532 0 l 1,5,-1
 945 0 l 1,6,-1
 891 366 l 1,7,-1
 677 366 l 1,0,-1
816 1085 m 1,8,-1
 801 1283 l 1,9,-1
 762 1283 l 1,10,-1
 749 1085 l 1,11,-1
 695 576 l 1,12,-1
 873 576 l 1,13,-1
 816 1085 l 1,8,-1
EndSplineSet
EndChar

StartChar: B
Encoding: 66 66 37
Width: 1533
GlyphClass: 2
Flags: W
LayerCount: 2
Fore
SplineSet
1223 905 m 2,0,-1
 1111 893 l 1,1,-1
 1111 854 l 1,2,-1
 1223 841 l 2,3,4
 1475 812 1475 812 1475 460 c 0,5,6
 1475 244 1475 244 1404.5 142 c 128,-1,7
 1334 40 1334 40 1152 12 c 0,8,9
 1069 0 1069 0 948 0 c 2,10,-1
 105 0 l 1,11,-1
 105 1595 l 1,12,-1
 952 1595 l 2,13,14
 1150 1595 1150 1595 1246 1554 c 128,-1,15
 1342 1513 1342 1513 1388 1433 c 128,-1,16
 1434 1353 1434 1353 1434 1210 c 128,-1,17
 1434 1067 1434 1067 1385 992 c 128,-1,18
 1336 917 1336 917 1223 905 c 2,0,-1
709 235 m 1,19,-1
 882 235 l 1,20,-1
 882 770 l 1,21,-1
 709 770 l 1,22,-1
 709 235 l 1,19,-1
709 951 m 1,23,-1
 882 951 l 1,24,-1
 882 1358 l 1,25,-1
 709 1358 l 1,26,-1
 709 951 l 1,23,-1
EndSplineSet
EndChar

StartChar: C
Encoding: 67 67 38
Width: 1540
GlyphClass: 2
Flags: W
LayerCount: 2
Fore
SplineSet
868 1356 m 1,0,-1
 695 1356 l 1,1,-1
 695 233 l 1,2,-1
 868 233 l 1,3,-1
 868 614 l 1,4,-1
 1472 614 l 1,5,-1
 1472 369 l 2,6,7
 1472 32 1472 32 1054 -24 c 0,8,9
 936 -40 936 -40 826.5 -40 c 128,-1,10
 717 -40 717 -40 660 -38 c 0,11,12
 314 -22 314 -22 171 131 c 0,13,14
 90 219 90 219 90 370 c 2,15,-1
 90 1226 l 2,16,17
 90 1445 90 1445 262 1538.5 c 128,-1,18
 434 1632 434 1632 741.5 1632 c 128,-1,19
 1049 1632 1049 1632 1187 1592 c 128,-1,20
 1325 1552 1325 1552 1398.5 1465 c 128,-1,21
 1472 1378 1472 1378 1472 1227 c 2,22,-1
 1472 979 l 1,23,-1
 868 979 l 1,24,-1
 868 1356 l 1,0,-1
EndSplineSet
EndChar

StartChar: D
Encoding: 68 68 39
Width: 1555
GlyphClass: 2
Flags: W
LayerCount: 2
Fore
SplineSet
708 235 m 1,0,-1
 881 235 l 1,1,-1
 881 1358 l 1,2,-1
 708 1358 l 1,3,-1
 708 235 l 1,0,-1
1485 1204 m 2,4,-1
 1485 393 l 2,5,6
 1485 137 1485 137 1278 55 c 0,7,8
 1185 18 1185 18 1083 9 c 128,-1,9
 981 0 981 0 859 0 c 2,10,-1
 103 0 l 1,11,-1
 103 1595 l 1,12,-1
 859 1595 l 2,13,14
 1115 1595 1115 1595 1237.5 1553.5 c 128,-1,15
 1360 1512 1360 1512 1422.5 1429 c 128,-1,16
 1485 1346 1485 1346 1485 1204 c 2,4,-1
EndSplineSet
EndChar

StartChar: E
Encoding: 69 69 40
Width: 1114
GlyphClass: 2
Flags: W
LayerCount: 2
Fore
SplineSet
1049 1595 m 1,0,-1
 1049 1346 l 1,1,-1
 708 1346 l 1,2,-1
 708 961 l 1,3,-1
 1026 961 l 1,4,-1
 1026 711 l 1,5,-1
 708 711 l 1,6,-1
 708 251 l 1,7,-1
 1049 251 l 1,8,-1
 1049 0 l 1,9,-1
 104 0 l 1,10,-1
 104 1595 l 1,11,-1
 1049 1595 l 1,0,-1
EndSplineSet
EndChar

StartChar: F
Encoding: 70 70 41
Width: 1102
GlyphClass: 2
Flags: W
LayerCount: 2
Fore
SplineSet
1049 1595 m 1,0,-1
 1049 1346 l 1,1,-1
 708 1346 l 1,2,-1
 708 954 l 1,3,-1
 1026 954 l 1,4,-1
 1026 705 l 1,5,-1
 708 705 l 1,6,-1
 708 0 l 1,7,-1
 104 0 l 1,8,-1
 104 1595 l 1,9,-1
 1049 1595 l 1,0,-1
EndSplineSet
EndChar

StartChar: G
Encoding: 71 71 42
Width: 1547
GlyphClass: 2
Flags: W
LayerCount: 2
Fore
SplineSet
230 56 m 0,0,1
 166 98 166 98 128 178.5 c 128,-1,2
 90 259 90 259 90 359 c 2,3,-1
 90 1228 l 2,4,5
 90 1449 90 1449 268 1544 c 0,6,7
 374 1600 374 1600 500.5 1616 c 128,-1,8
 627 1632 627 1632 782 1632 c 0,9,10
 1472 1632 1472 1632 1472 1227 c 2,11,-1
 1472 979 l 1,12,-1
 867 979 l 1,13,-1
 867 1358 l 1,14,-1
 694 1358 l 1,15,-1
 694 235 l 1,16,-1
 867 235 l 1,17,-1
 867 538 l 1,18,-1
 782 538 l 1,19,-1
 782 769 l 1,20,-1
 1472 769 l 1,21,-1
 1472 50 l 1,22,23
 1262 -33 1262 -33 730 -33 c 0,24,25
 363 -33 363 -33 230 56 c 0,0,1
EndSplineSet
EndChar

StartChar: H
Encoding: 72 72 43
Width: 1585
GlyphClass: 2
Flags: W
LayerCount: 2
Fore
SplineSet
1505 1595 m 1,0,-1
 1505 0 l 1,1,-1
 901 0 l 1,2,-1
 901 688 l 1,3,-1
 708 688 l 1,4,-1
 708 0 l 1,5,-1
 104 0 l 1,6,-1
 104 1595 l 1,7,-1
 708 1595 l 1,8,-1
 708 908 l 1,9,-1
 901 908 l 1,10,-1
 901 1595 l 1,11,-1
 1505 1595 l 1,0,-1
EndSplineSet
EndChar

StartChar: I
Encoding: 73 73 44
Width: 788
GlyphClass: 2
Flags: W
LayerCount: 2
Fore
SplineSet
708 1595 m 1,0,-1
 708 0 l 1,1,-1
 104 0 l 1,2,-1
 104 1595 l 1,3,-1
 708 1595 l 1,0,-1
EndSplineSet
EndChar

StartChar: J
Encoding: 74 74 45
Width: 908
GlyphClass: 2
Flags: W
LayerCount: 2
Fore
SplineSet
831 1594 m 1,0,-1
 831 274 l 2,1,2
 831 -55 831 -55 516 -136 c 0,3,4
 424 -159 424 -159 308 -159 c 128,-1,5
 192 -159 192 -159 54 -134 c 1,6,-1
 54 138 l 1,7,-1
 227 138 l 1,8,-1
 227 1594 l 1,9,-1
 831 1594 l 1,0,-1
EndSplineSet
EndChar

StartChar: K
Encoding: 75 75 46
Width: 1689
GlyphClass: 2
Flags: W
LayerCount: 2
Fore
SplineSet
1025 0 m 1,0,-1
 766 696 l 1,1,-1
 699 655 l 1,2,-1
 709 492 l 1,3,-1
 709 0 l 1,4,-1
 104 0 l 1,5,-1
 104 1595 l 1,6,-1
 709 1595 l 1,7,-1
 709 994 l 1,8,-1
 699 850 l 1,9,-1
 736 844 l 1,10,-1
 773 985 l 1,11,-1
 1002 1595 l 1,12,-1
 1621 1595 l 1,13,-1
 1279 844 l 1,14,-1
 1662 0 l 1,15,-1
 1025 0 l 1,0,-1
EndSplineSet
EndChar

StartChar: L
Encoding: 76 76 47
Width: 1094
GlyphClass: 2
Flags: W
LayerCount: 2
Fore
SplineSet
104 0 m 1,0,-1
 104 1595 l 1,1,-1
 708 1595 l 1,2,-1
 708 241 l 1,3,-1
 1049 241 l 1,4,-1
 1049 0 l 1,5,-1
 104 0 l 1,0,-1
EndSplineSet
EndChar

StartChar: M
Encoding: 77 77 48
Width: 1909
GlyphClass: 2
Flags: W
LayerCount: 2
Fore
SplineSet
1316 958 m 1,0,-1
 1179 0 l 1,1,-1
 752 0 l 1,2,-1
 627 958 l 1,3,-1
 587 958 l 1,4,-1
 599 689 l 1,5,-1
 557 0 l 1,6,-1
 76 0 l 1,7,-1
 150 1595 l 1,8,-1
 830 1595 l 1,9,-1
 930 880 l 1,10,-1
 943 611 l 1,11,-1
 982 611 l 1,12,-1
 997 880 l 1,13,-1
 1097 1595 l 1,14,-1
 1778 1595 l 1,15,-1
 1852 0 l 1,16,-1
 1386 0 l 1,17,-1
 1344 689 l 1,18,-1
 1356 958 l 1,19,-1
 1316 958 l 1,0,-1
EndSplineSet
EndChar

StartChar: N
Encoding: 78 78 49
Width: 1576
GlyphClass: 2
Flags: W
LayerCount: 2
Fore
SplineSet
957 0 m 1,0,-1
 552 711 l 1,1,-1
 552 0 l 1,2,-1
 104 0 l 1,3,-1
 104 1595 l 1,4,-1
 621 1595 l 1,5,-1
 1052 834 l 1,6,-1
 1052 1595 l 1,7,-1
 1496 1595 l 1,8,-1
 1496 0 l 1,9,-1
 957 0 l 1,0,-1
EndSplineSet
EndChar

StartChar: O
Encoding: 79 79 50
Width: 1542
GlyphClass: 2
Flags: W
LayerCount: 2
Fore
SplineSet
694 235 m 1,0,-1
 867 235 l 1,1,-1
 867 1362 l 1,2,-1
 694 1362 l 1,3,-1
 694 235 l 1,0,-1
911.5 -36 m 128,-1,5
 853 -39 853 -39 775 -39 c 128,-1,6
 697 -39 697 -39 585.5 -34.5 c 128,-1,7
 474 -30 474 -30 354 7 c 0,8,9
 89 89 89 89 89 370 c 2,10,-1
 89 1226 l 2,11,12
 89 1447 89 1447 261 1539 c 128,-1,13
 433 1631 433 1631 728.5 1631 c 128,-1,14
 1024 1631 1024 1631 1166.5 1590 c 128,-1,15
 1309 1549 1309 1549 1390 1463 c 128,-1,16
 1471 1377 1471 1377 1471 1226 c 2,17,-1
 1471 370 l 2,18,19
 1471 145 1471 145 1292 50 c 1,20,21
 1184 -6 1184 -6 1077 -19.5 c 128,-1,4
 970 -33 970 -33 911.5 -36 c 128,-1,5
EndSplineSet
EndChar

StartChar: P
Encoding: 80 80 51
Width: 1550
GlyphClass: 2
Flags: W
LayerCount: 2
Fore
SplineSet
104 1595 m 1,0,-1
 859 1595 l 2,1,2
 1115 1595 1115 1595 1237.5 1553.5 c 128,-1,3
 1360 1512 1360 1512 1422.5 1429 c 128,-1,4
 1485 1346 1485 1346 1485 1204 c 2,5,-1
 1485 793 l 2,6,7
 1485 617 1485 617 1383.5 522 c 128,-1,8
 1282 427 1282 427 1068 410 c 0,9,10
 971 402 971 402 860 402 c 2,11,-1
 708 402 l 1,12,-1
 708 0 l 1,13,-1
 104 0 l 1,14,-1
 104 1595 l 1,0,-1
707 628 m 1,15,-1
 880 628 l 1,16,-1
 880 1362 l 1,17,-1
 707 1362 l 1,18,-1
 707 628 l 1,15,-1
EndSplineSet
EndChar

StartChar: Q
Encoding: 81 81 52
Width: 1542
GlyphClass: 2
Flags: W
LayerCount: 2
Fore
SplineSet
1393 -379 m 1,0,1
 1270 -391 1270 -391 1167 -391 c 0,2,3
 934 -391 934 -391 811 -311.5 c 128,-1,4
 688 -232 688 -232 652 -36 c 1,5,6
 382 -22 382 -22 264.5 48 c 128,-1,7
 147 118 147 118 111 226 c 0,8,9
 90 290 90 290 90 370 c 2,10,-1
 90 1226 l 2,11,12
 90 1446 90 1446 261 1539 c 128,-1,13
 432 1632 432 1632 728 1632 c 128,-1,14
 1024 1632 1024 1632 1166 1592 c 0,15,16
 1472 1504 1472 1504 1472 1226 c 2,17,-1
 1472 370 l 2,18,19
 1472 188 1472 188 1372 105 c 128,-1,20
 1272 22 1272 22 1099 -12 c 1,21,22
 1103 -79 1103 -79 1255 -79 c 0,23,24
 1339 -79 1339 -79 1453 -57 c 1,25,-1
 1393 -379 l 1,0,1
695 235 m 1,26,-1
 868 235 l 1,27,-1
 868 1362 l 1,28,-1
 695 1362 l 1,29,-1
 695 235 l 1,26,-1
EndSplineSet
EndChar

StartChar: R
Encoding: 82 82 53
Width: 1553
GlyphClass: 2
Flags: W
LayerCount: 2
Fore
SplineSet
1243 805 m 2,0,-1
 1111 792 l 1,1,-1
 1111 753 l 1,2,-1
 1243 738 l 2,3,4
 1357 725 1357 725 1422 645.5 c 128,-1,5
 1487 566 1487 566 1487 437 c 2,6,-1
 1487 0 l 1,7,-1
 881 0 l 1,8,-1
 881 649 l 1,9,-1
 708 649 l 1,10,-1
 708 0 l 1,11,-1
 104 0 l 1,12,-1
 104 1595 l 1,13,-1
 1017 1595 l 2,14,15
 1240 1595 1240 1595 1355.5 1507 c 128,-1,16
 1471 1419 1471 1419 1471 1190 c 0,17,18
 1471 827 1471 827 1243 805 c 2,0,-1
708 881 m 1,19,-1
 881 881 l 1,20,-1
 881 1358 l 1,21,-1
 708 1358 l 1,22,-1
 708 881 l 1,19,-1
EndSplineSet
EndChar

StartChar: S
Encoding: 83 83 54
Width: 1469
GlyphClass: 2
Flags: W
LayerCount: 2
Fore
SplineSet
644 1125 m 1,0,-1
 647 1123 l 1,1,2
 647 1087 647 1087 753 1069 c 0,3,4
 978 1031 978 1031 1092 992 c 0,5,6
 1313 916 1313 916 1385 752 c 0,7,8
 1425 663 1425 663 1425 516 c 128,-1,9
 1425 369 1425 369 1387.5 257 c 128,-1,10
 1350 145 1350 145 1264.5 79 c 128,-1,11
 1179 13 1179 13 1056.5 -13 c 128,-1,12
 934 -39 934 -39 806.5 -39 c 128,-1,13
 679 -39 679 -39 578 -34.5 c 128,-1,14
 477 -30 477 -30 362.5 5 c 128,-1,15
 248 40 248 40 170 121.5 c 128,-1,16
 92 203 92 203 79 345 c 0,17,18
 73 413 73 413 73 488 c 1,19,-1
 646 488 l 1,20,-1
 646 235 l 1,21,-1
 819 235 l 1,22,-1
 819 485 l 2,23,24
 819 531 819 531 742 561 c 0,25,26
 706 575 706 575 634 596 c 128,-1,27
 562 617 562 617 526 628 c 0,28,29
 298 697 298 697 208 776 c 1,30,31
 67 903 67 903 67 1101 c 0,32,33
 67 1379 67 1379 213.5 1505 c 128,-1,34
 360 1631 360 1631 680.5 1631 c 128,-1,35
 1001 1631 1001 1631 1122.5 1579.5 c 128,-1,36
 1244 1528 1244 1528 1298.5 1433 c 128,-1,37
 1353 1338 1353 1338 1353 1180 c 1,38,-1
 817 1180 l 1,39,-1
 817 1358 l 1,40,-1
 644 1358 l 1,41,-1
 644 1125 l 1,0,-1
EndSplineSet
EndChar

StartChar: T
Encoding: 84 84 55
Width: 1324
GlyphClass: 2
Flags: W
LayerCount: 2
Fore
SplineSet
1321 1595 m 1,0,-1
 1321 1326 l 1,1,-1
 965 1326 l 1,2,-1
 965 0 l 1,3,-1
 361 0 l 1,4,-1
 361 1326 l 1,5,-1
 8 1326 l 1,6,-1
 8 1595 l 1,7,-1
 1321 1595 l 1,0,-1
EndSplineSet
EndChar

StartChar: U
Encoding: 85 85 56
Width: 1556
GlyphClass: 2
Flags: W
LayerCount: 2
Fore
SplineSet
701 234 m 1,0,-1
 874 234 l 1,1,-1
 874 1594 l 1,2,-1
 1479 1594 l 1,3,-1
 1479 370 l 2,4,5
 1479 34 1479 34 1054 -23 c 0,6,7
 935 -39 935 -39 826 -39 c 128,-1,8
 717 -39 717 -39 660 -36 c 0,9,10
 97 -12 97 -12 97 371 c 2,11,-1
 97 1595 l 1,12,-1
 701 1595 l 1,13,-1
 701 234 l 1,0,-1
EndSplineSet
EndChar

StartChar: V
Encoding: 86 86 57
Width: 1526
GlyphClass: 2
Flags: W
LayerCount: 2
Fore
SplineSet
733 681 m 1,0,-1
 746 412 l 1,1,-1
 785 412 l 1,2,-1
 800 681 l 1,3,-1
 912 1595 l 1,4,-1
 1504 1595 l 1,5,-1
 1186 0 l 1,6,-1
 344 0 l 1,7,-1
 26 1595 l 1,8,-1
 617 1595 l 1,9,-1
 733 681 l 1,0,-1
EndSplineSet
EndChar

StartChar: W
Encoding: 87 87 58
Width: 2108
GlyphClass: 2
Flags: W
LayerCount: 2
Fore
SplineSet
1401 853 m 1,0,-1
 1418 584 l 1,1,-1
 1450 586 l 1,2,-1
 1544 1595 l 1,3,-1
 2075 1595 l 1,4,-1
 1836 0 l 1,5,-1
 1174 0 l 1,6,-1
 1076 628 l 1,7,-1
 1061 927 l 1,8,-1
 1022 927 l 1,9,-1
 1009 628 l 1,10,-1
 909 0 l 1,11,-1
 267 0 l 1,12,-1
 38 1595 l 1,13,-1
 621 1595 l 1,14,-1
 666 584 l 1,15,-1
 705 584 l 1,16,-1
 721 853 l 1,17,-1
 805 1595 l 1,18,-1
 1319 1595 l 1,19,-1
 1401 853 l 1,0,-1
EndSplineSet
EndChar

StartChar: X
Encoding: 88 88 59
Width: 1539
GlyphClass: 2
Flags: W
LayerCount: 2
Fore
SplineSet
590 0 m 1,0,-1
 22 0 l 1,1,-1
 349 782 l 1,2,-1
 22 1595 l 1,3,-1
 594 1595 l 1,4,-1
 740 1157 l 1,5,-1
 757 1041 l 1,6,-1
 786 1041 l 1,7,-1
 803 1157 l 1,8,-1
 954 1595 l 1,9,-1
 1525 1595 l 1,10,-1
 1195 782 l 1,11,-1
 1525 0 l 1,12,-1
 950 0 l 1,13,-1
 799 438 l 1,14,-1
 782 554 l 1,15,-1
 753 554 l 1,16,-1
 736 438 l 1,17,-1
 590 0 l 1,0,-1
EndSplineSet
EndChar

StartChar: Y
Encoding: 89 89 60
Width: 1552
GlyphClass: 2
Flags: W
LayerCount: 2
Fore
SplineSet
746 1021 m 1,0,-1
 763 815 l 1,1,-1
 792 815 l 1,2,-1
 809 1021 l 1,3,-1
 968 1595 l 1,4,-1
 1524 1595 l 1,5,-1
 1082 449 l 1,6,-1
 1082 0 l 1,7,-1
 477 0 l 1,8,-1
 477 459 l 1,9,-1
 32 1595 l 1,10,-1
 592 1595 l 1,11,-1
 746 1021 l 1,0,-1
EndSplineSet
EndChar

StartChar: Z
Encoding: 90 90 61
Width: 1138
GlyphClass: 2
Flags: W
LayerCount: 2
Fore
SplineSet
1092 1595 m 1,0,-1
 745 294 l 1,1,-1
 1082 294 l 1,2,-1
 1082 0 l 1,3,-1
 56 0 l 1,4,-1
 440 1304 l 1,5,-1
 68 1304 l 1,6,-1
 68 1595 l 1,7,-1
 1092 1595 l 1,0,-1
EndSplineSet
EndChar

StartChar: bracketleft
Encoding: 91 91 62
Width: 1111
GlyphClass: 2
Flags: W
LayerCount: 2
Fore
SplineSet
100 1819 m 1,0,-1
 1075 1819 l 1,1,-1
 1075 1578 l 1,2,-1
 734 1578 l 1,3,-1
 734 -77 l 1,4,-1
 1075 -77 l 1,5,-1
 1075 -319 l 1,6,-1
 100 -319 l 1,7,-1
 100 1819 l 1,0,-1
EndSplineSet
EndChar

StartChar: backslash
Encoding: 92 92 63
Width: 1053
GlyphClass: 2
Flags: W
LayerCount: 2
Fore
SplineSet
587 1595 m 1,0,-1
 939 0 l 1,1,-1
 464 0 l 1,2,-1
 113 1595 l 1,3,-1
 587 1595 l 1,0,-1
EndSplineSet
EndChar

StartChar: bracketright
Encoding: 93 93 64
Width: 1108
GlyphClass: 2
Flags: W
LayerCount: 2
Fore
SplineSet
1010 -319 m 1,0,-1
 35 -319 l 1,1,-1
 35 -77 l 1,2,-1
 376 -77 l 1,3,-1
 376 1578 l 1,4,-1
 35 1578 l 1,5,-1
 35 1819 l 1,6,-1
 1010 1819 l 1,7,-1
 1010 -319 l 1,0,-1
EndSplineSet
EndChar

StartChar: asciicircum
Encoding: 94 94 65
Width: 1222
GlyphClass: 2
Flags: W
LayerCount: 2
Fore
SplineSet
896 676 m 1,0,-1
 1179 61 l 1,1,-1
 698 61 l 1,2,-1
 610 381 l 1,3,-1
 526 61 l 1,4,-1
 46 61 l 1,5,-1
 318 676 l 1,6,-1
 896 676 l 1,0,-1
EndSplineSet
EndChar

StartChar: underscore
Encoding: 95 95 66
Width: 1042
GlyphClass: 2
Flags: W
LayerCount: 2
Fore
SplineSet
967 1 m 1,0,-1
 967 -435 l 1,1,-1
 78 -435 l 1,2,-1
 78 1 l 1,3,-1
 967 1 l 1,0,-1
EndSplineSet
EndChar

StartChar: grave
Encoding: 96 96 67
Width: 873
GlyphClass: 2
Flags: W
LayerCount: 2
Fore
SplineSet
689 1595.5 m 128,-1,1
 779 1512 779 1512 813.5 1481 c 128,-1,2
 848 1450 848 1450 848 1424.5 c 128,-1,3
 848 1399 848 1399 830 1385 c 128,-1,4
 812 1371 812 1371 789.5 1371 c 128,-1,5
 767 1371 767 1371 734.5 1381.5 c 128,-1,6
 702 1392 702 1392 592 1423 c 128,-1,7
 482 1454 482 1454 352.5 1493 c 128,-1,8
 223 1532 223 1532 161 1568 c 0,9,10
 41 1638 41 1638 41 1752 c 0,11,12
 41 1825 41 1825 90.5 1877.5 c 128,-1,13
 140 1930 140 1930 208 1930 c 128,-1,14
 276 1930 276 1930 325.5 1901.5 c 128,-1,15
 375 1873 375 1873 437.5 1821.5 c 128,-1,16
 500 1770 500 1770 549.5 1724.5 c 128,-1,0
 599 1679 599 1679 689 1595.5 c 128,-1,1
EndSplineSet
EndChar

StartChar: a
Encoding: 97 97 68
Width: 1464
GlyphClass: 2
Flags: W
LayerCount: 2
Fore
SplineSet
834 139 m 1,0,1
 734 -27 734 -27 507 -27 c 128,-1,2
 280 -27 280 -27 176.5 75 c 128,-1,3
 73 177 73 177 73 395 c 128,-1,4
 73 613 73 613 191 718.5 c 128,-1,5
 309 824 309 824 545 824 c 0,6,7
 686 824 686 824 811 783 c 1,8,-1
 811 1106 l 1,9,-1
 672 1106 l 1,10,-1
 672 915 l 1,11,-1
 147 895 l 1,12,13
 136 959 136 959 136 1013 c 128,-1,14
 136 1067 136 1067 158 1117 c 0,15,16
 248 1327 248 1327 707 1327 c 0,17,18
 941 1327 941 1327 1047 1307.5 c 128,-1,19
 1153 1288 1153 1288 1216 1253 c 0,20,21
 1381 1162 1381 1162 1381 952 c 2,22,-1
 1381 257 l 1,23,24
 1382 129 1382 129 1410 1 c 1,25,-1
 890 1 l 1,26,-1
 834 139 l 1,0,1
645 653 m 1,27,-1
 645 200 l 1,28,-1
 811 200 l 1,29,-1
 811 653 l 1,30,-1
 645 653 l 1,27,-1
EndSplineSet
EndChar

StartChar: b
Encoding: 98 98 69
Width: 1481
GlyphClass: 2
Flags: W
LayerCount: 2
Fore
SplineSet
997 -27 m 0,0,1
 887 -27 887 -27 797 10.5 c 128,-1,2
 707 48 707 48 662 114 c 1,3,-1
 625 0 l 1,4,-1
 105 0 l 1,5,-1
 105 1710 l 1,6,-1
 676 1710 l 1,7,-1
 676 1215 l 1,8,9
 773 1327 773 1327 1000 1327 c 0,10,11
 1414 1327 1414 1327 1414 940 c 2,12,-1
 1414 377 l 2,13,14
 1414 -27 1414 -27 997 -27 c 0,0,1
676 199 m 1,15,-1
 843 199 l 1,16,-1
 843 1105 l 1,17,-1
 676 1105 l 1,18,-1
 676 199 l 1,15,-1
EndSplineSet
EndChar

StartChar: c
Encoding: 99 99 70
Width: 1462
GlyphClass: 2
Flags: W
LayerCount: 2
Fore
SplineSet
1396 539 m 1,0,-1
 1397 352 l 1,1,2
 1397 10 1397 10 954 -21 c 0,3,4
 860 -27 860 -27 763 -27 c 128,-1,5
 666 -27 666 -27 559 -22.5 c 128,-1,6
 452 -18 452 -18 338 16 c 0,7,8
 86 91 86 91 86 355 c 2,9,-1
 86 955 l 2,10,11
 86 1289 86 1289 541 1321 c 0,12,13
 634 1327 634 1327 729 1327 c 128,-1,14
 824 1327 824 1327 867 1326 c 0,15,16
 1203 1318 1203 1318 1314 1200 c 1,17,18
 1396 1111 1396 1111 1396 978 c 2,19,-1
 1396 787 l 1,20,-1
 825 787 l 1,21,-1
 825 1105 l 1,22,-1
 658 1105 l 1,23,-1
 658 199 l 1,24,-1
 825 199 l 1,25,-1
 825 539 l 1,26,-1
 1396 539 l 1,0,-1
EndSplineSet
EndChar

StartChar: d
Encoding: 100 100 71
Width: 1478
GlyphClass: 2
Flags: W
LayerCount: 2
Fore
SplineSet
500 1327 m 0,0,1
 726 1327 726 1327 823 1215 c 1,2,-1
 823 1710 l 1,3,-1
 1394 1710 l 1,4,-1
 1394 0 l 1,5,-1
 874 0 l 1,6,-1
 837 114 l 1,7,8
 791 48 791 48 701.5 10.5 c 128,-1,9
 612 -27 612 -27 502 -27 c 0,10,11
 85 -27 85 -27 85 377 c 2,12,-1
 85 940 l 2,13,14
 85 1327 85 1327 500 1327 c 0,0,1
822 1105 m 1,15,-1
 655 1105 l 1,16,-1
 655 199 l 1,17,-1
 822 199 l 1,18,-1
 822 1105 l 1,15,-1
EndSplineSet
EndChar

StartChar: e
Encoding: 101 101 72
Width: 1463
GlyphClass: 2
Flags: W
LayerCount: 2
Fore
SplineSet
1396 483 m 1,0,1
 1404 422 1404 422 1404 380 c 0,2,3
 1404 157 1404 157 1245 65 c 128,-1,4
 1086 -27 1086 -27 779.5 -27 c 128,-1,5
 473 -27 473 -27 347 10.5 c 128,-1,6
 221 48 221 48 153.5 128.5 c 128,-1,7
 86 209 86 209 86 353 c 2,8,-1
 86 953 l 2,9,10
 86 1163 86 1163 248.5 1245 c 128,-1,11
 411 1327 411 1327 676.5 1327 c 128,-1,12
 942 1327 942 1327 1049.5 1308 c 128,-1,13
 1157 1289 1157 1289 1220 1256 c 0,14,15
 1396 1163 1396 1163 1396 954 c 2,16,-1
 1396 604 l 1,17,-1
 658 604 l 1,18,-1
 658 199 l 1,19,-1
 825 199 l 1,20,-1
 825 483 l 1,21,-1
 1396 483 l 1,0,1
658 777 m 1,22,-1
 826 777 l 1,23,-1
 826 1105 l 1,24,-1
 658 1105 l 1,25,-1
 658 777 l 1,22,-1
EndSplineSet
EndChar

StartChar: f
Encoding: 102 102 73
Width: 1205
GlyphClass: 2
Flags: W
LayerCount: 2
Fore
SplineSet
263 1300 m 1,0,1
 263 1539 263 1539 392 1635 c 128,-1,2
 521 1731 521 1731 751.5 1731 c 128,-1,3
 982 1731 982 1731 1139 1683 c 1,4,-1
 1139 1477 l 1,5,-1
 834 1477 l 1,6,-1
 834 1300 l 1,7,-1
 1148 1300 l 1,8,-1
 1148 1098 l 1,9,-1
 834 1098 l 1,10,-1
 834 0 l 1,11,-1
 263 0 l 1,12,-1
 263 1098 l 1,13,-1
 56 1098 l 1,14,-1
 56 1300 l 1,15,-1
 263 1300 l 1,0,1
EndSplineSet
EndChar

StartChar: g
Encoding: 103 103 74
Width: 1470
GlyphClass: 2
Flags: W
LayerCount: 2
Fore
SplineSet
836 205 m 1,0,1
 746 91 746 91 505 91 c 0,2,3
 85 91 85 91 85 482 c 2,4,-1
 85 927 l 2,5,6
 85 1327 85 1327 508 1327 c 1,7,8
 744 1325 744 1325 847 1187 c 1,9,-1
 883 1299 l 1,10,-1
 1394 1299 l 1,11,-1
 1394 236 l 2,12,13
 1394 -78 1394 -78 1219.5 -225 c 128,-1,14
 1045 -372 1045 -372 675 -372 c 0,15,16
 419 -372 419 -372 198 -311 c 1,17,-1
 255 -20 l 1,18,19
 396 -59 396 -59 585 -59 c 128,-1,20
 774 -59 774 -59 836 -22 c 1,21,-1
 836 205 l 1,0,1
823 1104 m 1,22,-1
 656 1104 l 1,23,-1
 656 316 l 1,24,-1
 823 316 l 1,25,-1
 823 1104 l 1,22,-1
EndSplineSet
EndChar

StartChar: h
Encoding: 104 104 75
Width: 1486
GlyphClass: 2
Flags: W
LayerCount: 2
Fore
SplineSet
997 1327 m 0,0,1
 1414 1327 1414 1327 1414 945 c 2,2,-1
 1414 0 l 1,3,-1
 843 0 l 1,4,-1
 843 1105 l 1,5,-1
 676 1105 l 1,6,-1
 676 0 l 1,7,-1
 105 0 l 1,8,-1
 105 1710 l 1,9,-1
 676 1710 l 1,10,-1
 676 1210 l 1,11,12
 717 1266 717 1266 805 1296.5 c 128,-1,13
 893 1327 893 1327 997 1327 c 0,0,1
EndSplineSet
EndChar

StartChar: i
Encoding: 105 105 76
Width: 759
GlyphClass: 2
Flags: W
LayerCount: 2
Fore
SplineSet
675 0 m 1,0,-1
 104 0 l 1,1,-1
 104 1300 l 1,2,-1
 675 1300 l 1,3,-1
 675 0 l 1,0,-1
675 1709 m 1,4,-1
 675 1425 l 1,5,-1
 104 1425 l 1,6,-1
 104 1709 l 1,7,-1
 675 1709 l 1,4,-1
EndSplineSet
EndChar

StartChar: j
Encoding: 106 106 77
Width: 868
GlyphClass: 2
Flags: W
LayerCount: 2
Fore
SplineSet
784 94 m 2,0,1
 784 -122 784 -122 667 -224 c 128,-1,2
 550 -326 550 -326 323 -326 c 0,3,4
 159 -326 159 -326 53 -305 c 1,5,-1
 23 -66 l 1,6,-1
 212 -66 l 1,7,-1
 212 1300 l 1,8,-1
 784 1300 l 1,9,-1
 784 94 l 2,0,1
784 1709 m 1,10,-1
 784 1425 l 1,11,-1
 212 1425 l 1,12,-1
 212 1709 l 1,13,-1
 784 1709 l 1,10,-1
EndSplineSet
EndChar

StartChar: k
Encoding: 107 107 78
Width: 1525
GlyphClass: 2
Flags: W
LayerCount: 2
Fore
SplineSet
105 0 m 1,0,-1
 105 1710 l 1,1,-1
 676 1710 l 1,2,-1
 676 798 l 1,3,-1
 945 1300 l 1,4,-1
 1531 1300 l 1,5,-1
 1200 690 l 1,6,-1
 1538 0 l 1,7,-1
 958 0 l 1,8,-1
 719 575 l 1,9,-1
 676 478 l 1,10,-1
 676 0 l 1,11,-1
 105 0 l 1,0,-1
EndSplineSet
EndChar

StartChar: l
Encoding: 108 108 79
Width: 760
GlyphClass: 2
Flags: W
LayerCount: 2
Fore
SplineSet
676 0 m 1,0,-1
 105 0 l 1,1,-1
 105 1710 l 1,2,-1
 676 1710 l 1,3,-1
 676 0 l 1,0,-1
EndSplineSet
EndChar

StartChar: m
Encoding: 109 109 80
Width: 2189
GlyphClass: 2
Flags: W
LayerCount: 2
Fore
SplineSet
1346 1191 m 1,0,1
 1439 1327 1439 1327 1693 1327 c 0,2,3
 1897 1327 1897 1327 2006.5 1231 c 128,-1,4
 2116 1135 2116 1135 2116 944 c 2,5,-1
 2116 0 l 1,6,-1
 1553 0 l 1,7,-1
 1553 1105 l 1,8,-1
 1380 1105 l 1,9,10
 1387 1067 1387 1067 1387 1001 c 2,11,-1
 1387 0 l 1,12,-1
 830 0 l 1,13,-1
 830 1105 l 1,14,-1
 663 1105 l 1,15,-1
 663 0 l 1,16,-1
 100 0 l 1,17,-1
 100 1300 l 1,18,-1
 612 1300 l 1,19,-1
 649 1188 l 1,20,21
 697 1253 697 1253 795 1290 c 128,-1,22
 893 1327 893 1327 1007 1327 c 0,23,24
 1235 1327 1235 1327 1346 1191 c 1,0,1
EndSplineSet
EndChar

StartChar: n
Encoding: 110 110 81
Width: 1482
GlyphClass: 2
Flags: W
LayerCount: 2
Fore
SplineSet
987 1327 m 0,0,1
 1192 1326 1192 1326 1300 1229 c 128,-1,2
 1408 1132 1408 1132 1408 944 c 2,3,-1
 1408 0 l 1,4,-1
 837 0 l 1,5,-1
 837 1105 l 1,6,-1
 670 1105 l 1,7,-1
 670 0 l 1,8,-1
 99 0 l 1,9,-1
 99 1300 l 1,10,-1
 609 1300 l 1,11,-1
 646 1188 l 1,12,13
 691 1251 691 1251 783 1289 c 128,-1,14
 875 1327 875 1327 987 1327 c 0,0,1
EndSplineSet
EndChar

StartChar: o
Encoding: 111 111 82
Width: 1465
GlyphClass: 2
Flags: W
LayerCount: 2
Fore
SplineSet
658 233 m 1,0,-1
 824 233 l 1,1,-1
 824 1105 l 1,2,-1
 658 1105 l 1,3,-1
 658 233 l 1,0,-1
433 -8 m 0,4,5
 207 31 207 31 129 167 c 0,6,7
 87 239 87 239 87 353 c 2,8,-1
 87 953 l 2,9,10
 87 1083 87 1083 151 1160.5 c 128,-1,11
 215 1238 215 1238 316.5 1273.5 c 128,-1,12
 418 1309 418 1309 523 1318 c 128,-1,13
 628 1327 628 1327 726 1327 c 128,-1,14
 824 1327 824 1327 932 1322.5 c 128,-1,15
 1040 1318 1040 1318 1152 1283 c 0,16,17
 1396 1207 1396 1207 1396 952 c 2,18,-1
 1396 352 l 2,19,20
 1396 167 1396 167 1293 89 c 0,21,22
 1240 49 1240 49 1187 24 c 128,-1,23
 1134 -1 1134 -1 1021.5 -14 c 128,-1,24
 909 -27 909 -27 724 -27 c 128,-1,25
 539 -27 539 -27 433 -8 c 0,4,5
EndSplineSet
EndChar

StartChar: p
Encoding: 112 112 83
Width: 1476
GlyphClass: 2
Flags: W
LayerCount: 2
Fore
SplineSet
989 -27 m 0,0,1
 758 -27 758 -27 670 87 c 1,2,-1
 670 -408 l 1,3,-1
 99 -408 l 1,4,-1
 99 1300 l 1,5,-1
 589 1300 l 1,6,-1
 626 1188 l 1,7,8
 675 1254 675 1254 772.5 1290.5 c 128,-1,9
 870 1327 870 1327 986 1327 c 0,10,11
 1409 1327 1409 1327 1409 926 c 2,12,-1
 1409 365 l 2,13,14
 1409 -27 1409 -27 989 -27 c 0,0,1
670 199 m 1,15,-1
 837 199 l 1,16,-1
 837 1105 l 1,17,-1
 670 1105 l 1,18,-1
 670 199 l 1,15,-1
EndSplineSet
EndChar

StartChar: q
Encoding: 113 113 84
Width: 1459
GlyphClass: 2
Flags: W
LayerCount: 2
Fore
SplineSet
86 926 m 1,0,-1
 85 926 l 1,1,2
 85 1327 85 1327 502 1327 c 0,3,4
 650 1327 650 1327 768 1248 c 0,5,6
 807 1222 807 1222 831 1188 c 1,7,-1
 869 1300 l 1,8,-1
 1381 1300 l 1,9,-1
 1381 -408 l 1,10,-1
 832 -408 l 1,11,-1
 832 87 l 1,12,13
 733 -27 733 -27 501 -27 c 0,14,15
 86 -27 86 -27 86 365 c 2,16,-1
 86 926 l 1,0,-1
817 1105 m 1,17,-1
 652 1105 l 1,18,-1
 652 199 l 1,19,-1
 817 199 l 1,20,-1
 817 1105 l 1,17,-1
EndSplineSet
EndChar

StartChar: r
Encoding: 114 114 85
Width: 981
GlyphClass: 2
Flags: W
LayerCount: 2
Fore
SplineSet
100 0 m 1,0,-1
 101 1300 l 1,1,-1
 587 1300 l 1,2,-1
 628 1153 l 1,3,4
 661 1232 661 1232 750 1278 c 128,-1,5
 839 1324 839 1324 957 1327 c 1,6,-1
 957 949 l 1,7,-1
 671 893 l 1,8,-1
 671 0 l 1,9,-1
 100 0 l 1,0,-1
EndSplineSet
EndChar

StartChar: s
Encoding: 115 115 86
Width: 1434
GlyphClass: 2
Flags: W
LayerCount: 2
Fore
SplineSet
807 446 m 1,0,-1
 808 446 l 1,1,2
 799 456 799 456 724 466 c 0,3,4
 407 506 407 506 317 553.5 c 128,-1,5
 227 601 227 601 176 647 c 0,6,7
 70 744 70 744 70 900 c 0,8,9
 70 1123 70 1123 222 1225 c 128,-1,10
 374 1327 374 1327 677 1327 c 128,-1,11
 980 1327 980 1327 1098 1291 c 0,12,13
 1347 1216 1347 1216 1347 956 c 0,14,15
 1347 887 1347 887 1346 872 c 1,16,-1
 807 902 l 1,17,-1
 807 1063 l 1,18,-1
 640 1063 l 1,19,-1
 640 861 l 1,20,21
 649 852 649 852 680.5 847 c 128,-1,22
 712 842 712 842 831 824.5 c 128,-1,23
 950 807 950 807 1024 787 c 0,24,25
 1173 746 1173 746 1275.5 658.5 c 128,-1,26
 1378 571 1378 571 1378 420 c 0,27,28
 1378 171 1378 171 1223 72 c 128,-1,29
 1068 -27 1068 -27 782 -27 c 128,-1,30
 496 -27 496 -27 425 -10 c 0,31,32
 292 20 292 20 238 60 c 0,33,34
 100 161 100 161 100 397 c 0,35,36
 100 420 100 420 101 432 c 1,37,-1
 640 400 l 1,38,-1
 640 233 l 1,39,-1
 807 233 l 1,40,-1
 807 446 l 1,0,-1
EndSplineSet
EndChar

StartChar: t
Encoding: 116 116 87
Width: 968
GlyphClass: 2
Flags: W
LayerCount: 2
Fore
SplineSet
764 0 m 1,0,-1
 193 0 l 1,1,-1
 193 1100 l 1,2,-1
 56 1100 l 1,3,-1
 56 1300 l 1,4,-1
 193 1300 l 1,5,-1
 193 1595 l 1,6,-1
 764 1595 l 1,7,-1
 764 1300 l 1,8,-1
 923 1300 l 1,9,-1
 923 1100 l 1,10,-1
 764 1100 l 1,11,-1
 764 0 l 1,0,-1
EndSplineSet
EndChar

StartChar: u
Encoding: 117 117 88
Width: 1478
GlyphClass: 2
Flags: W
LayerCount: 2
Fore
SplineSet
515 -27 m 0,0,1
 91 -27 91 -27 91 360 c 2,2,-1
 91 1300 l 1,3,-1
 663 1300 l 1,4,-1
 663 233 l 1,5,-1
 829 233 l 1,6,-1
 829 1300 l 1,7,-1
 1401 1300 l 1,8,-1
 1401 0 l 1,9,-1
 884 0 l 1,10,-1
 847 112 l 1,11,12
 808 48 808 48 715 10.5 c 128,-1,13
 622 -27 622 -27 515 -27 c 0,0,1
EndSplineSet
EndChar

StartChar: v
Encoding: 118 118 89
Width: 1348
GlyphClass: 2
Flags: W
LayerCount: 2
Fore
SplineSet
635 686 m 1,0,-1
 652 340 l 1,1,-1
 701 340 l 1,2,-1
 718 686 l 1,3,-1
 786 1300 l 1,4,-1
 1347 1300 l 1,5,-1
 1073 0 l 1,6,-1
 279 0 l 1,7,-1
 4 1300 l 1,8,-1
 565 1300 l 1,9,-1
 635 686 l 1,0,-1
EndSplineSet
EndChar

StartChar: w
Encoding: 119 119 90
Width: 2066
GlyphClass: 2
Flags: W
LayerCount: 2
Fore
SplineSet
992 435 m 1,0,-1
 940 0 l 1,1,-1
 250 0 l 1,2,-1
 32 1300 l 1,3,-1
 562 1300 l 1,4,-1
 617 761 l 1,5,-1
 637 385 l 1,6,-1
 681 385 l 1,7,-1
 711 761 l 1,8,-1
 763 1300 l 1,9,-1
 1308 1300 l 1,10,-1
 1359 761 l 1,11,-1
 1385 385 l 1,12,-1
 1429 385 l 1,13,-1
 1449 761 l 1,14,-1
 1502 1300 l 1,15,-1
 2031 1300 l 1,16,-1
 1813 0 l 1,17,-1
 1119 0 l 1,18,-1
 1065 435 l 1,19,-1
 1043 801 l 1,20,-1
 1013 801 l 1,21,-1
 992 435 l 1,0,-1
EndSplineSet
EndChar

StartChar: x
Encoding: 120 120 91
Width: 1395
GlyphClass: 2
Flags: W
LayerCount: 2
Fore
SplineSet
45 0 m 1,0,-1
 418 652 l 1,1,-1
 45 1300 l 1,2,-1
 617 1300 l 1,3,-1
 703 1049 l 1,4,-1
 790 1300 l 1,5,-1
 1361 1300 l 1,6,-1
 988 652 l 1,7,-1
 1361 0 l 1,8,-1
 794 0 l 1,9,-1
 703 258 l 1,10,-1
 612 0 l 1,11,-1
 45 0 l 1,0,-1
EndSplineSet
EndChar

StartChar: y
Encoding: 121 121 92
Width: 1342
GlyphClass: 2
Flags: W
LayerCount: 2
Fore
SplineSet
628 693 m 1,0,-1
 639 417 l 1,1,-1
 709 417 l 1,2,-1
 721 693 l 1,3,-1
 781 1300 l 1,4,-1
 1333 1300 l 1,5,-1
 1113 14 l 1,6,7
 1059 -312 1059 -312 736 -361 c 0,8,9
 669 -371 669 -371 565 -371 c 128,-1,10
 461 -371 461 -371 192 -318 c 1,11,-1
 235 -13 l 1,12,13
 395 -53 395 -53 512 -53 c 128,-1,14
 629 -53 629 -53 705 -24 c 1,15,-1
 705 135 l 1,16,17
 580 89 580 89 449 89 c 0,18,19
 256 89 256 89 211 277 c 1,20,-1
 20 1300 l 1,21,-1
 553 1300 l 1,22,-1
 628 693 l 1,0,-1
EndSplineSet
EndChar

StartChar: z
Encoding: 122 122 93
Width: 1118
GlyphClass: 2
Flags: W
LayerCount: 2
Fore
SplineSet
100 1300 m 1,0,-1
 1052 1300 l 1,1,-1
 1052 1079 l 1,2,-1
 696 246 l 1,3,-1
 1059 246 l 1,4,-1
 1059 0 l 1,5,-1
 76 0 l 1,6,-1
 76 233 l 1,7,-1
 436 1051 l 1,8,-1
 100 1051 l 1,9,-1
 100 1300 l 1,0,-1
EndSplineSet
EndChar

StartChar: braceleft
Encoding: 123 123 94
Width: 1132
GlyphClass: 2
Flags: W
LayerCount: 2
Fore
SplineSet
1100 1925 m 1,0,-1
 1100 1646 l 1,1,2
 920 1646 920 1646 846 1566.5 c 128,-1,3
 772 1487 772 1487 755 1362 c 0,4,5
 747 1301 747 1301 741.5 1187 c 128,-1,6
 736 1073 736 1073 720 989 c 0,7,8
 695 861 695 861 609 796 c 1,9,10
 695 739 695 739 720 614 c 0,11,12
 735 539 735 539 741.5 421 c 128,-1,13
 748 303 748 303 756 242 c 0,14,15
 771 114 771 114 846.5 31.5 c 128,-1,16
 922 -51 922 -51 1101 -51 c 1,17,-1
 1101 -330 l 1,18,19
 892 -330 892 -330 748 -296 c 128,-1,20
 604 -262 604 -262 499.5 -181.5 c 128,-1,21
 395 -101 395 -101 341 33 c 128,-1,22
 287 167 287 167 273 366 c 0,23,24
 271 384 271 384 264 454.5 c 128,-1,25
 257 525 257 525 244 560 c 0,26,27
 207 658 207 658 85 658 c 1,28,-1
 85 937 l 1,29,30
 244 937 244 937 261 1105 c 0,31,32
 265 1144 265 1144 268.5 1176.5 c 128,-1,33
 272 1209 272 1209 274 1228 c 0,34,35
 309 1493 309 1493 401.5 1643.5 c 128,-1,36
 494 1794 494 1794 659.5 1859.5 c 128,-1,37
 825 1925 825 1925 1100 1925 c 1,0,-1
EndSplineSet
EndChar

StartChar: bar
Encoding: 124 124 95
Width: 831
GlyphClass: 2
Flags: W
LayerCount: 2
Fore
SplineSet
700 1795 m 1,0,-1
 700 -100 l 1,1,-1
 129 -100 l 1,2,-1
 129 1795 l 1,3,-1
 700 1795 l 1,0,-1
EndSplineSet
EndChar

StartChar: braceright
Encoding: 125 125 96
Width: 1131
GlyphClass: 2
Flags: W
LayerCount: 2
Fore
SplineSet
59 1646 m 1,0,-1
 59 1925 l 1,1,2
 334 1925 334 1925 499.5 1859.5 c 128,-1,3
 665 1794 665 1794 757.5 1643.5 c 128,-1,4
 850 1493 850 1493 885 1228 c 0,5,6
 887 1209 887 1209 890.5 1176.5 c 128,-1,7
 894 1144 894 1144 898 1105 c 0,8,9
 915 937 915 937 1074 937 c 1,10,-1
 1074 658 l 1,11,12
 952 658 952 658 915 560 c 0,13,14
 902 525 902 525 895 454.5 c 128,-1,15
 888 384 888 384 886 366 c 0,16,17
 872 167 872 167 818 33 c 128,-1,18
 764 -101 764 -101 659.5 -181.5 c 128,-1,19
 555 -262 555 -262 411 -296 c 128,-1,20
 267 -330 267 -330 58 -330 c 1,21,-1
 58 -51 l 1,22,23
 237 -51 237 -51 312.5 31.5 c 128,-1,24
 388 114 388 114 404 242 c 0,25,26
 411 303 411 303 417.5 421 c 128,-1,27
 424 539 424 539 439 614 c 0,28,29
 464 739 464 739 550 796 c 1,30,31
 464 861 464 861 439 989 c 0,32,33
 423 1073 423 1073 417.5 1187 c 128,-1,34
 412 1301 412 1301 404 1362 c 0,35,36
 387 1487 387 1487 313 1566.5 c 128,-1,37
 239 1646 239 1646 59 1646 c 1,0,-1
EndSplineSet
EndChar

StartChar: asciitilde
Encoding: 126 126 97
Width: 1424
GlyphClass: 2
Flags: W
LayerCount: 2
Fore
SplineSet
1057 642 m 1,0,1
 1057 713 1057 713 1031 759.5 c 128,-1,2
 1005 806 1005 806 955 806 c 128,-1,3
 905 806 905 806 861 786.5 c 128,-1,4
 817 767 817 767 779 739 c 128,-1,5
 741 711 741 711 700 683 c 0,6,7
 602 616 602 616 499 616 c 0,8,9
 310 616 310 616 220 697.5 c 128,-1,10
 130 779 130 779 101.5 901 c 128,-1,11
 73 1023 73 1023 73 1176 c 1,12,-1
 369 1176 l 1,13,14
 369 1008 369 1008 481 1008 c 0,15,16
 571 1008 571 1008 676 1076 c 0,17,18
 720 1104 720 1104 766 1132 c 0,19,20
 877 1201 877 1201 1018 1201 c 0,21,22
 1282 1201 1282 1201 1332 942 c 0,23,24
 1354 827 1354 827 1354 642 c 1,25,-1
 1057 642 l 1,0,1
EndSplineSet
EndChar

StartChar: exclamdown
Encoding: 161 161 98
Width: 719
GlyphClass: 2
Flags: W
LayerCount: 2
Fore
SplineSet
310 989 m 1,0,1
 326 1057 326 1057 371 1057 c 0,2,3
 391 1057 391 1057 407.5 1039.5 c 128,-1,4
 424 1022 424 1022 438.5 959 c 128,-1,5
 453 896 453 896 541 597.5 c 128,-1,6
 629 299 629 299 629 190.5 c 128,-1,7
 629 82 629 82 551.5 23.5 c 128,-1,8
 474 -35 474 -35 370 -35 c 128,-1,9
 266 -35 266 -35 192 22 c 128,-1,10
 118 79 118 79 118 183.5 c 128,-1,11
 118 288 118 288 203.5 590 c 128,-1,12
 289 892 289 892 311 989 c 1,13,-1
 310 989 l 1,0,1
151 1392 m 1,14,-1
 152 1391 l 1,15,16
 152 1504 152 1504 211.5 1565.5 c 128,-1,17
 271 1627 271 1627 353.5 1627 c 128,-1,18
 436 1627 436 1627 498.5 1565.5 c 128,-1,19
 561 1504 561 1504 561 1401 c 128,-1,20
 561 1298 561 1298 500 1242.5 c 128,-1,21
 439 1187 439 1187 355.5 1187 c 128,-1,22
 272 1187 272 1187 211.5 1241.5 c 128,-1,23
 151 1296 151 1296 151 1392 c 1,14,-1
EndSplineSet
EndChar

StartChar: cent
Encoding: 162 162 99
Width: 1462
GlyphClass: 2
Flags: W
LayerCount: 2
Fore
SplineSet
1396 633 m 1,0,-1
 1396 523 l 2,1,2
 1396 269 1396 269 1160 192 c 0,3,4
 1023 147 1023 147 785 147 c 1,5,-1
 785 -74 l 1,6,-1
 706 -74 l 1,7,-1
 706 147 l 1,8,9
 468 147 468 147 341 189 c 128,-1,10
 214 231 214 231 150 311.5 c 128,-1,11
 86 392 86 392 86 529 c 2,12,-1
 86 969 l 2,13,14
 86 1274 86 1274 461 1328 c 0,15,16
 570 1343 570 1343 706 1343 c 1,17,-1
 706 1578 l 1,18,-1
 785 1578 l 1,19,-1
 785 1343 l 1,20,21
 1185 1336 1185 1336 1318 1200 c 0,22,23
 1396 1119 1396 1119 1396 992 c 2,24,-1
 1396 881 l 1,25,-1
 885 881 l 1,26,-1
 885 1119 l 1,27,-1
 785 1119 l 1,28,-1
 785 373 l 1,29,-1
 885 373 l 1,30,-1
 885 633 l 1,31,-1
 1396 633 l 1,0,-1
598 1119 m 1,32,-1
 598 373 l 1,33,-1
 706 373 l 1,34,-1
 706 1119 l 1,35,-1
 598 1119 l 1,32,-1
EndSplineSet
EndChar

StartChar: sterling
Encoding: 163 163 100
Width: 1598
GlyphClass: 2
Flags: W
LayerCount: 2
Fore
SplineSet
74 265 m 1,0,-1
 76 266 l 1,1,2
 234 286 234 286 234 376 c 2,3,-1
 234 719 l 1,4,-1
 76 719 l 1,5,-1
 76 941 l 1,6,-1
 234 941 l 1,7,-1
 234 1065 l 2,8,9
 234 1234 234 1234 256 1340 c 128,-1,10
 278 1446 278 1446 350.5 1515 c 128,-1,11
 423 1584 423 1584 556 1608 c 128,-1,12
 689 1632 689 1632 931 1632 c 0,13,14
 1321 1632 1321 1632 1450 1476 c 0,15,16
 1497 1420 1497 1420 1502 1354 c 128,-1,17
 1507 1288 1507 1288 1507 1247 c 2,18,-1
 1507 1070 l 1,19,-1
 926 1070 l 1,20,-1
 926 1364 l 1,21,-1
 819 1364 l 1,22,-1
 819 940 l 1,23,-1
 1246 940 l 1,24,-1
 1246 718 l 1,25,-1
 819 718 l 1,26,-1
 819 268 l 1,27,-1
 947 268 l 1,28,-1
 947 562 l 1,29,-1
 1528 562 l 1,30,-1
 1528 385 l 2,31,32
 1528 262 1528 262 1500 186 c 0,33,34
 1430 0 1430 0 1097 0 c 0,35,36
 904 0 904 0 819 91 c 0,37,38
 805 106 805 106 781 130 c 1,39,40
 734 81 734 81 690.5 54.5 c 128,-1,41
 647 28 647 28 571.5 15 c 128,-1,42
 496 2 496 2 301 0 c 1,43,-1
 74 0 l 1,44,-1
 74 265 l 1,0,-1
EndSplineSet
EndChar

StartChar: currency
Encoding: 164 164 101
Width: 1390
GlyphClass: 2
Flags: W
LayerCount: 2
Fore
SplineSet
1036 346 m 1,0,1
 894 299 894 299 691.5 300 c 128,-1,2
 489 301 489 301 354 349 c 1,3,-1
 206 189 l 1,4,-1
 126 273 l 1,5,-1
 244 401 l 1,6,7
 150 462 150 462 109 556.5 c 128,-1,8
 68 651 68 651 68 807 c 128,-1,9
 68 963 68 963 101 1065 c 128,-1,10
 134 1167 134 1167 219 1229 c 1,11,-1
 127 1330 l 1,12,-1
 207 1414 l 1,13,-1
 325 1286 l 1,14,15
 470 1343 470 1343 694.5 1343 c 128,-1,16
 919 1343 919 1343 1065 1287 c 1,17,-1
 1181 1414 l 1,18,-1
 1262 1330 l 1,19,-1
 1171 1231 l 1,20,21
 1259 1168 1259 1168 1292 1069.5 c 128,-1,22
 1325 971 1325 971 1325 812.5 c 128,-1,23
 1325 654 1325 654 1282 556 c 128,-1,24
 1239 458 1239 458 1145 398 c 1,25,-1
 1263 272 l 1,26,-1
 1182 188 l 1,27,-1
 1036 346 l 1,0,1
637 570 m 1,28,-1
 749 570 l 1,29,-1
 749 1070 l 1,30,-1
 637 1070 l 1,31,-1
 637 570 l 1,28,-1
EndSplineSet
EndChar

StartChar: yen
Encoding: 165 165 102
Width: 1571
GlyphClass: 2
Flags: W
LayerCount: 2
Fore
SplineSet
1425 728 m 1,0,-1
 1425 585 l 1,1,-1
 127 585 l 1,2,-1
 127 728 l 1,3,-1
 1425 728 l 1,0,-1
1425 442 m 1,4,-1
 1425 299 l 1,5,-1
 127 299 l 1,6,-1
 127 442 l 1,7,-1
 1425 442 l 1,4,-1
746 1021 m 1,8,-1
 763 815 l 1,9,-1
 792 815 l 1,10,-1
 809 1021 l 1,11,-1
 968 1595 l 1,12,-1
 1524 1595 l 1,13,-1
 1082 449 l 1,14,-1
 1082 0 l 1,15,-1
 477 0 l 1,16,-1
 477 459 l 1,17,-1
 32 1595 l 1,18,-1
 592 1595 l 1,19,-1
 746 1021 l 1,8,-1
EndSplineSet
EndChar

StartChar: brokenbar
Encoding: 166 166 103
Width: 831
GlyphClass: 2
Flags: W
LayerCount: 2
Fore
SplineSet
702 656 m 1,0,-1
 702 -255 l 1,1,-1
 131 -255 l 1,2,-1
 131 656 l 1,3,-1
 702 656 l 1,0,-1
702 1708 m 1,4,-1
 702 797 l 1,5,-1
 131 797 l 1,6,-1
 131 1708 l 1,7,-1
 702 1708 l 1,4,-1
EndSplineSet
EndChar

StartChar: section
Encoding: 167 167 104
Width: 1362
GlyphClass: 2
Flags: W
LayerCount: 2
Fore
SplineSet
85 321 m 1,0,-1
 86 426 l 1,1,-1
 637 426 l 1,2,-1
 637 235 l 1,3,-1
 710 235 l 1,4,-1
 710 487 l 1,5,-1
 455 487 l 2,6,7
 273 487 273 487 173 554.5 c 128,-1,8
 73 622 73 622 73 783 c 0,9,10
 73 880 73 880 121 945 c 128,-1,11
 169 1010 169 1010 248 1039 c 1,12,-1
 265 1046 l 1,13,14
 88 1129 88 1129 88 1329 c 0,15,16
 88 1570 88 1570 225 1670 c 128,-1,17
 362 1770 362 1770 646.5 1770 c 128,-1,18
 931 1770 931 1770 1044 1734.5 c 128,-1,19
 1157 1699 1157 1699 1220 1623 c 128,-1,20
 1283 1547 1283 1547 1283 1411 c 1,21,-1
 1282 1306 l 1,22,-1
 730 1306 l 1,23,-1
 730 1497 l 1,24,-1
 657 1497 l 1,25,-1
 657 1248 l 1,26,27
 674 1231 674 1231 776 1231 c 1,28,29
 976 1223 976 1223 1072 1196 c 0,30,31
 1294 1135 1294 1135 1294 955.5 c 128,-1,32
 1294 776 1294 776 1142 705 c 0,33,34
 1100 685 1100 685 1083 685 c 1,35,36
 1087 683 1087 683 1106.5 675 c 128,-1,37
 1126 667 1126 667 1137 660 c 0,38,39
 1278 575 1278 575 1278 401 c 0,40,41
 1278 160 1278 160 1142 60 c 0,42,43
 1057 -2 1057 -2 961 -17 c 0,44,45
 779 -47 779 -47 596.5 -40 c 128,-1,46
 414 -33 414 -33 347 -11 c 1,47,48
 209 32 209 32 147 108.5 c 128,-1,49
 85 185 85 185 85 321 c 1,0,-1
717 748 m 1,50,-1
 717 971 l 1,51,-1
 648 971 l 1,52,-1
 648 748 l 1,53,-1
 717 748 l 1,50,-1
EndSplineSet
EndChar

StartChar: dieresis
Encoding: 168 168 105
Width: 1296
GlyphClass: 2
Flags: W
LayerCount: 2
Fore
SplineSet
533 418 m 1,0,-1
 533 82 l 1,1,-1
 83 82 l 1,2,-1
 83 418 l 1,3,-1
 533 418 l 1,0,-1
1217 418 m 1,4,-1
 1217 82 l 1,5,-1
 766 82 l 1,6,-1
 766 418 l 1,7,-1
 1217 418 l 1,4,-1
EndSplineSet
EndChar

StartChar: copyright
Encoding: 169 169 106
Width: 1861
GlyphClass: 2
Flags: W
LayerCount: 2
Fore
SplineSet
1192 -85.5 m 128,-1,1
 1075 -101 1075 -101 923.5 -101 c 128,-1,2
 772 -101 772 -101 646 -82 c 0,3,4
 374 -42 374 -42 229 105 c 128,-1,5
 84 252 84 252 84 539 c 2,6,-1
 84 1116 l 2,7,8
 84 1684 84 1684 746 1742 c 0,9,10
 832 1749 832 1749 962 1749 c 0,11,12
 1434 1749 1434 1749 1635 1546 c 0,13,14
 1780 1400 1780 1400 1780 1116 c 2,15,-1
 1780 539 l 2,16,17
 1780 386 1780 386 1733.5 271 c 128,-1,18
 1687 156 1687 156 1610.5 86.5 c 128,-1,19
 1534 17 1534 17 1421.5 -26.5 c 128,-1,0
 1309 -70 1309 -70 1192 -85.5 c 128,-1,1
323 1114 m 2,20,-1
 323 535 l 2,21,22
 323 266 323 266 470.5 167 c 128,-1,23
 618 68 618 68 910 68 c 0,24,25
 1295 68 1295 68 1434 196 c 0,26,27
 1541 294 1541 294 1541 482 c 2,28,-1
 1541 1165 l 2,29,30
 1541 1441 1541 1441 1294 1526 c 0,31,32
 1156 1573 1156 1573 964 1573 c 128,-1,33
 772 1573 772 1573 662 1551.5 c 128,-1,34
 552 1530 552 1530 474 1478 c 0,35,36
 323 1377 323 1377 323 1114 c 2,20,-1
835 432 m 1,37,-1
 1034 432 l 1,38,-1
 1034 749 l 1,39,-1
 1311 749 l 1,40,-1
 1311 542 l 2,41,42
 1311 350 1311 350 1160 301 c 0,43,44
 1071 272 1071 272 949.5 272 c 128,-1,45
 828 272 828 272 767.5 282.5 c 128,-1,46
 707 293 707 293 656 322 c 0,47,48
 555 379 555 379 555 547 c 2,49,-1
 555 1107 l 2,50,51
 555 1273 555 1273 646 1327 c 128,-1,52
 737 1381 737 1381 909.5 1381 c 128,-1,53
 1082 1381 1082 1381 1134 1362 c 0,54,55
 1234 1326 1234 1326 1272.5 1269.5 c 128,-1,56
 1311 1213 1311 1213 1311 1111 c 2,57,-1
 1311 913 l 1,58,-1
 1034 913 l 1,59,-1
 1034 1222 l 1,60,-1
 835 1222 l 1,61,-1
 835 432 l 1,37,-1
EndSplineSet
EndChar

StartChar: ordfeminine
Encoding: 170 170 107
Width: 1471
GlyphClass: 2
Flags: W
LayerCount: 2
Fore
SplineSet
833 428 m 1,0,1
 734 263 734 263 506.5 263 c 128,-1,2
 279 263 279 263 175.5 364.5 c 128,-1,3
 72 466 72 466 72 684 c 128,-1,4
 72 902 72 902 190 1007.5 c 128,-1,5
 308 1113 308 1113 544 1113 c 0,6,7
 685 1113 685 1113 810 1072 c 1,8,-1
 810 1395 l 1,9,-1
 671 1395 l 1,10,-1
 671 1204 l 1,11,-1
 146 1184 l 1,12,13
 135 1248 135 1248 135 1303 c 128,-1,14
 135 1358 135 1358 156 1408 c 0,15,16
 194 1499 194 1499 296 1546 c 0,17,18
 450 1616 450 1616 740.5 1616 c 128,-1,19
 1031 1616 1031 1616 1186 1553 c 0,20,21
 1364 1480 1364 1480 1377 1321 c 0,22,23
 1380 1279 1380 1279 1380 1241 c 2,24,-1
 1380 546 l 1,25,-1
 1381 547 l 1,26,27
 1381 420 1381 420 1409 290 c 1,28,-1
 889 290 l 1,29,-1
 833 428 l 1,0,1
644 942 m 1,30,-1
 644 489 l 1,31,-1
 810 489 l 1,32,-1
 810 942 l 1,33,-1
 644 942 l 1,30,-1
EndSplineSet
EndChar

StartChar: guillemotleft
Encoding: 171 171 108
Width: 1806
GlyphClass: 2
Flags: W
LayerCount: 2
Fore
SplineSet
711 213 m 1,0,-1
 184 593 l 1,1,2
 94 656 94 656 95 776 c 128,-1,3
 96 896 96 896 184 961 c 1,4,-1
 711 1341 l 2,5,6
 743 1364 743 1364 776.5 1364 c 128,-1,7
 810 1364 810 1364 833.5 1339 c 128,-1,8
 857 1314 857 1314 857 1278 c 128,-1,9
 857 1242 857 1242 832 1209 c 2,10,-1
 498 777 l 1,11,-1
 832 345 l 2,12,13
 855 315 855 315 855 278 c 128,-1,14
 855 241 855 241 831.5 215.5 c 128,-1,15
 808 190 808 190 774.5 190 c 128,-1,16
 741 190 741 190 711 213 c 1,0,-1
1446 213 m 2,17,-1
 920 593 l 1,18,19
 830 656 830 656 831 776 c 128,-1,20
 832 896 832 896 920 961 c 1,21,-1
 1446 1341 l 2,22,23
 1478 1364 1478 1364 1512 1364 c 128,-1,24
 1546 1364 1546 1364 1569 1339 c 128,-1,25
 1592 1314 1592 1314 1592 1277.5 c 128,-1,26
 1592 1241 1592 1241 1568 1209 c 2,27,-1
 1234 777 l 1,28,-1
 1568 345 l 2,29,30
 1590 317 1590 317 1590 279 c 128,-1,31
 1590 241 1590 241 1567 215.5 c 128,-1,32
 1544 190 1544 190 1510.5 190 c 128,-1,33
 1477 190 1477 190 1446 213 c 2,17,-1
EndSplineSet
EndChar

StartChar: logicalnot
Encoding: 172 172 109
Width: 1269
GlyphClass: 2
Flags: W
LayerCount: 2
Fore
SplineSet
1179 300 m 1,0,-1
 950 300 l 1,1,-1
 950 791 l 1,2,-1
 83 791 l 1,3,-1
 83 1105 l 1,4,-1
 1179 1105 l 1,5,-1
 1179 300 l 1,0,-1
EndSplineSet
EndChar

StartChar: uni00AD
Encoding: 173 173 110
Width: 1005
GlyphClass: 2
Flags: W
LayerCount: 2
Fore
SplineSet
920 897 m 1,0,-1
 920 561 l 1,1,-1
 87 561 l 1,2,-1
 87 897 l 1,3,-1
 920 897 l 1,0,-1
EndSplineSet
EndChar

StartChar: registered
Encoding: 174 174 111
Width: 1861
GlyphClass: 2
Flags: W
LayerCount: 2
Fore
SplineSet
1192 -85.5 m 128,-1,1
 1075 -101 1075 -101 923.5 -101 c 128,-1,2
 772 -101 772 -101 646 -82 c 0,3,4
 374 -42 374 -42 229 105 c 128,-1,5
 84 252 84 252 84 539 c 2,6,-1
 84 1116 l 2,7,8
 84 1684 84 1684 746 1742 c 0,9,10
 832 1749 832 1749 962 1749 c 0,11,12
 1434 1749 1434 1749 1635 1546 c 0,13,14
 1780 1400 1780 1400 1780 1116 c 2,15,-1
 1780 539 l 2,16,17
 1780 386 1780 386 1733.5 271 c 128,-1,18
 1687 156 1687 156 1610.5 86.5 c 128,-1,19
 1534 17 1534 17 1421.5 -26.5 c 128,-1,0
 1309 -70 1309 -70 1192 -85.5 c 128,-1,1
323 1114 m 2,20,-1
 323 535 l 2,21,22
 323 266 323 266 470.5 167 c 128,-1,23
 618 68 618 68 910 68 c 0,24,25
 1295 68 1295 68 1434 196 c 0,26,27
 1541 294 1541 294 1541 482 c 2,28,-1
 1541 1165 l 2,29,30
 1541 1441 1541 1441 1294 1526 c 0,31,32
 1156 1573 1156 1573 964 1573 c 128,-1,33
 772 1573 772 1573 662 1551.5 c 128,-1,34
 552 1530 552 1530 474 1478 c 0,35,36
 323 1377 323 1377 323 1114 c 2,20,-1
1116 835 m 1,37,-1
 1227 828 l 2,38,39
 1289 824 1289 824 1323 774.5 c 128,-1,40
 1357 725 1357 725 1357 643 c 2,41,-1
 1357 279 l 1,42,-1
 978 279 l 1,43,-1
 978 756 l 1,44,-1
 895 756 l 1,45,-1
 895 279 l 1,46,-1
 506 279 l 1,47,-1
 506 1434 l 1,48,-1
 1016 1434 l 2,49,50
 1156 1434 1156 1434 1200 1416 c 0,51,52
 1289 1381 1289 1381 1325 1323.5 c 128,-1,53
 1361 1266 1361 1266 1361 1164 c 2,54,-1
 1361 1071 l 2,55,56
 1361 978 1361 978 1324.5 923.5 c 128,-1,57
 1288 869 1288 869 1226 864 c 2,58,-1
 1116 854 l 1,59,-1
 1116 835 l 1,37,-1
895 915 m 1,60,-1
 978 915 l 1,61,-1
 978 1274 l 1,62,-1
 895 1274 l 1,63,-1
 895 915 l 1,60,-1
EndSplineSet
EndChar

StartChar: macron
Encoding: 175 175 112
Width: 999
GlyphClass: 2
Flags: W
LayerCount: 2
Fore
SplineSet
920 897 m 1,0,-1
 920 666 l 1,1,-1
 87 666 l 1,2,-1
 87 897 l 1,3,-1
 920 897 l 1,0,-1
EndSplineSet
EndChar

StartChar: degree
Encoding: 176 176 113
Width: 812
GlyphClass: 2
Flags: W
LayerCount: 2
Fore
SplineSet
73 1371 m 128,-1,1
 73 1492 73 1492 164 1582 c 128,-1,2
 255 1672 255 1672 404 1672 c 128,-1,3
 553 1672 553 1672 644 1582 c 128,-1,4
 735 1492 735 1492 735 1371 c 128,-1,5
 735 1250 735 1250 644 1160 c 128,-1,6
 553 1070 553 1070 404 1070 c 128,-1,7
 255 1070 255 1070 164 1160 c 128,-1,0
 73 1250 73 1250 73 1371 c 128,-1,1
545 1371 m 128,-1,9
 545 1437 545 1437 505.5 1478.5 c 128,-1,10
 466 1520 466 1520 404 1520 c 128,-1,11
 342 1520 342 1520 302.5 1478.5 c 128,-1,12
 263 1437 263 1437 263 1371 c 128,-1,13
 263 1305 263 1305 302.5 1263.5 c 128,-1,14
 342 1222 342 1222 404 1222 c 128,-1,15
 466 1222 466 1222 505.5 1263.5 c 128,-1,8
 545 1305 545 1305 545 1371 c 128,-1,9
EndSplineSet
EndChar

StartChar: plusminus
Encoding: 177 177 114
Width: 1304
GlyphClass: 2
Flags: W
LayerCount: 2
Fore
SplineSet
457 1214 m 1,0,-1
 457 1595 l 1,1,-1
 849 1595 l 1,2,-1
 849 1214 l 1,3,-1
 1213 1214 l 1,4,-1
 1213 881 l 1,5,-1
 849 881 l 1,6,-1
 849 503 l 1,7,-1
 457 503 l 1,8,-1
 457 881 l 1,9,-1
 92 881 l 1,10,-1
 92 1214 l 1,11,-1
 457 1214 l 1,0,-1
1064 300 m 1,12,-1
 1064 -1 l 1,13,-1
 230 -1 l 1,14,-1
 230 300 l 1,15,-1
 1064 300 l 1,12,-1
EndSplineSet
EndChar

StartChar: uni00B2
Encoding: 178 178 115
Width: 1090
GlyphClass: 2
Flags: W
LayerCount: 2
Fore
SplineSet
189 836 m 1,0,1
 189 836 189 836 188 878 c 1,2,3
 188 1102 188 1102 357 1170 c 0,4,5
 454 1209 454 1209 584 1209 c 128,-1,6
 714 1209 714 1209 786.5 1194 c 128,-1,7
 859 1179 859 1179 915 1142 c 0,8,9
 1026 1070 1026 1070 1026 876 c 128,-1,10
 1026 682 1026 682 887 578 c 0,11,12
 822 529 822 529 730.5 487 c 128,-1,13
 639 445 639 445 596 414 c 128,-1,14
 553 383 553 383 553 332 c 1,15,-1
 986 332 l 1,16,-1
 986 134 l 1,17,-1
 189 134 l 1,18,-1
 189 313 l 2,19,20
 189 504 189 504 277.5 606 c 128,-1,21
 366 708 366 708 517 768 c 0,22,23
 621 810 621 810 637 834 c 128,-1,24
 653 858 653 858 653 877 c 2,25,-1
 653 1030 l 1,26,-1
 553 1030 l 1,27,-1
 553 836 l 1,28,-1
 189 836 l 1,0,1
EndSplineSet
EndChar

StartChar: uni00B3
Encoding: 179 179 116
Width: 1101
GlyphClass: 2
Flags: W
LayerCount: 2
Fore
SplineSet
1036 881 m 0,0,1
 1036 729 1036 729 898 669 c 1,2,3
 967 643 967 643 1002.5 582.5 c 128,-1,4
 1038 522 1038 522 1038 439 c 0,5,6
 1038 257 1038 257 935 178.5 c 128,-1,7
 832 100 832 100 609.5 100 c 128,-1,8
 387 100 387 100 283.5 191 c 128,-1,9
 180 282 180 282 180 471 c 0,10,11
 180 500 180 500 183 532 c 1,12,-1
 549 532 l 1,13,-1
 549 282 l 1,14,-1
 662 282 l 1,15,-1
 662 595 l 1,16,-1
 491 595 l 1,17,-1
 491 743 l 1,18,-1
 662 743 l 1,19,-1
 662 1027 l 1,20,-1
 549 1027 l 1,21,-1
 549 804 l 1,22,-1
 183 804 l 1,23,24
 180 833 180 833 180 859 c 0,25,26
 180 1050 180 1050 283.5 1127.5 c 128,-1,27
 387 1205 387 1205 603.5 1205 c 128,-1,28
 820 1205 820 1205 928 1131.5 c 128,-1,29
 1036 1058 1036 1058 1036 881 c 0,0,1
EndSplineSet
EndChar

StartChar: acute
Encoding: 180 180 117
Width: 873
GlyphClass: 2
Flags: W
LayerCount: 2
Fore
SplineSet
43 1385 m 128,-1,1
 25 1399 25 1399 25 1424.5 c 128,-1,2
 25 1450 25 1450 59.5 1481 c 128,-1,3
 94 1512 94 1512 184 1595.5 c 128,-1,4
 274 1679 274 1679 369 1766 c 128,-1,5
 464 1853 464 1853 530.5 1891.5 c 128,-1,6
 597 1930 597 1930 665 1930 c 128,-1,7
 733 1930 733 1930 782.5 1877.5 c 128,-1,8
 832 1825 832 1825 832 1762 c 0,9,10
 832 1638 832 1638 716 1570 c 0,11,12
 650 1532 650 1532 520.5 1493 c 128,-1,13
 391 1454 391 1454 281 1423 c 128,-1,14
 171 1392 171 1392 138.5 1381.5 c 128,-1,15
 106 1371 106 1371 83.5 1371 c 128,-1,0
 61 1371 61 1371 43 1385 c 128,-1,1
EndSplineSet
EndChar

StartChar: paragraph
Encoding: 182 182 118
Width: 1318
GlyphClass: 2
Flags: W
LayerCount: 2
Fore
SplineSet
591 659 m 1,0,1
 330 659 330 659 193 765.5 c 128,-1,2
 56 872 56 872 56 1107 c 0,3,4
 56 1442 56 1442 318 1541 c 0,5,6
 460 1595 460 1595 689 1595 c 2,7,-1
 1223 1595 l 1,8,-1
 1223 0 l 1,9,-1
 962 0 l 1,10,-1
 962 658 l 1,11,-1
 853 658 l 1,12,-1
 853 0 l 1,13,-1
 591 0 l 1,14,-1
 591 659 l 1,0,1
EndSplineSet
EndChar

StartChar: cedilla
Encoding: 184 184 119
Width: 948
GlyphClass: 2
Flags: W
LayerCount: 2
Fore
SplineSet
384 0 m 1,0,-1
 561 0 l 1,1,-1
 561 -70 l 1,2,3
 675 -70 675 -70 733 -104 c 128,-1,4
 791 -138 791 -138 791 -228 c 2,5,-1
 791 -323 l 2,6,7
 791 -422 791 -422 722.5 -451.5 c 128,-1,8
 654 -481 654 -481 533 -481 c 128,-1,9
 412 -481 412 -481 348 -448.5 c 128,-1,10
 284 -416 284 -416 284 -323 c 2,11,-1
 284 -267 l 1,12,-1
 511 -239 l 1,13,-1
 511 -371 l 1,14,-1
 574 -371 l 1,15,-1
 574 -180 l 1,16,-1
 384 -180 l 1,17,-1
 384 0 l 1,0,-1
EndSplineSet
EndChar

StartChar: uni00B9
Encoding: 185 185 120
Width: 731
GlyphClass: 2
Flags: W
LayerCount: 2
Fore
SplineSet
115 1115 m 1,0,1
 252 1115 252 1115 342 1170 c 1,2,-1
 654 1170 l 1,3,-1
 654 130 l 1,4,-1
 259 130 l 1,5,-1
 259 971 l 1,6,-1
 115 971 l 1,7,-1
 115 1115 l 1,0,1
EndSplineSet
EndChar

StartChar: ordmasculine
Encoding: 186 186 121
Width: 1334
GlyphClass: 2
Flags: W
LayerCount: 2
Fore
SplineSet
870 102 m 0,0,1
 567 86 567 86 416 133 c 0,2,3
 218 194 218 194 218 413 c 2,4,-1
 218 893 l 2,5,6
 218 1068 218 1068 347.5 1136 c 128,-1,7
 477 1204 477 1204 715 1204 c 128,-1,8
 953 1204 953 1204 1055 1172 c 128,-1,9
 1157 1140 1157 1140 1211 1073.5 c 128,-1,10
 1265 1007 1265 1007 1265 892 c 2,11,-1
 1265 412 l 2,12,13
 1265 260 1265 260 1183 197 c 0,14,15
 1140 164 1140 164 1086.5 137.5 c 128,-1,16
 1033 111 1033 111 870 102 c 0,0,1
675 317 m 1,17,-1
 808 317 l 1,18,-1
 808 1014 l 1,19,-1
 675 1014 l 1,20,-1
 675 317 l 1,17,-1
EndSplineSet
EndChar

StartChar: guillemotright
Encoding: 187 187 122
Width: 1770
GlyphClass: 2
Flags: W
LayerCount: 2
Fore
SplineSet
1552 593 m 1,0,-1
 1025 213 l 1,1,2
 995 190 995 190 961.5 190 c 128,-1,3
 928 190 928 190 904.5 215.5 c 128,-1,4
 881 241 881 241 881 278 c 128,-1,5
 881 315 881 315 904 345 c 2,6,-1
 1238 777 l 1,7,-1
 904 1209 l 2,8,9
 879 1242 879 1242 879 1278 c 128,-1,10
 879 1314 879 1314 902.5 1339 c 128,-1,11
 926 1364 926 1364 959.5 1364 c 128,-1,12
 993 1364 993 1364 1025 1341 c 2,13,-1
 1552 961 l 1,14,15
 1640 896 1640 896 1641 776 c 128,-1,16
 1642 656 1642 656 1552 593 c 1,0,-1
816 593 m 1,17,-1
 290 213 l 2,18,19
 259 190 259 190 225.5 190 c 128,-1,20
 192 190 192 190 169 215.5 c 128,-1,21
 146 241 146 241 146 279 c 128,-1,22
 146 317 146 317 168 345 c 2,23,-1
 502 777 l 1,24,-1
 168 1209 l 2,25,26
 144 1241 144 1241 144 1277.5 c 128,-1,27
 144 1314 144 1314 167 1339 c 128,-1,28
 190 1364 190 1364 224 1364 c 128,-1,29
 258 1364 258 1364 290 1341 c 2,30,-1
 816 961 l 1,31,32
 904 896 904 896 905 776 c 128,-1,33
 906 656 906 656 816 593 c 1,17,-1
EndSplineSet
EndChar

StartChar: AE
Encoding: 198 198 133
Width: 2011
GlyphClass: 2
Flags: W
LayerCount: 2
Fore
SplineSet
1946 1595 m 1,0,-1
 1946 1354 l 1,1,-1
 1605 1354 l 1,2,-1
 1605 961 l 1,3,-1
 1923 961 l 1,4,-1
 1923 711 l 1,5,-1
 1605 711 l 1,6,-1
 1605 244 l 1,7,-1
 1946 244 l 1,8,-1
 1946 0 l 1,9,-1
 987 0 l 1,10,-1
 987 348 l 1,11,-1
 774 348 l 1,12,-1
 663 0 l 1,13,-1
 38 0 l 1,14,-1
 673 1595 l 1,15,-1
 1946 1595 l 1,0,-1
847 578 m 1,16,-1
 987 578 l 1,17,-1
 987 1001 l 1,18,-1
 847 578 l 1,16,-1
EndSplineSet
EndChar

StartChar: Eth
Encoding: 208 208 143
Width: 1449
GlyphClass: 2
Flags: W
LayerCount: 2
Fore
SplineSet
773 868 m 1,0,-1
 773 726 l 1,1,-1
 52 726 l 1,2,-1
 52 868 l 1,3,-1
 773 868 l 1,0,-1
645 237 m 1,4,-1
 881 237 l 1,5,-1
 881 1358 l 1,6,-1
 645 1358 l 1,7,-1
 645 237 l 1,4,-1
1378 393 m 1,8,-1
 1376 392 l 1,9,10
 1376 261 1376 261 1338 186 c 0,11,12
 1245 0 1245 0 817 0 c 2,13,-1
 146 0 l 1,14,-1
 146 1595 l 1,15,-1
 817 1595 l 2,16,17
 1075 1595 1075 1595 1211 1529 c 0,18,19
 1366 1455 1366 1455 1375 1289 c 0,20,21
 1378 1244 1378 1244 1378 1204 c 2,22,-1
 1378 393 l 1,8,-1
EndSplineSet
EndChar

StartChar: multiply
Encoding: 215 215 150
Width: 1310
GlyphClass: 2
Flags: W
LayerCount: 2
Fore
SplineSet
1266 924 m 1,0,-1
 1008 649 l 1,1,-1
 1266 375 l 1,2,-1
 917 4 l 1,3,-1
 660 279 l 1,4,-1
 401 4 l 1,5,-1
 53 375 l 1,6,-1
 311 649 l 1,7,-1
 53 924 l 1,8,-1
 401 1294 l 1,9,-1
 660 1020 l 1,10,-1
 917 1294 l 1,11,-1
 1266 924 l 1,0,-1
EndSplineSet
EndChar

StartChar: Oslash
Encoding: 216 216 151
Width: 1542
GlyphClass: 2
Flags: W
LayerCount: 2
Fore
SplineSet
1275 1817 m 1,0,-1
 1396 1716 l 1,1,-1
 242 -166 l 1,2,-1
 114 -70 l 1,3,-1
 1275 1817 l 1,0,-1
695 235 m 1,4,-1
 868 235 l 1,5,-1
 868 1362 l 1,6,-1
 695 1362 l 1,7,-1
 695 235 l 1,4,-1
778 -39 m 1,8,-1
 779 -41 l 1,9,10
 135 -41 135 -41 96 283 c 0,11,12
 90 330 90 330 90 370 c 2,13,-1
 90 1226 l 2,14,15
 90 1418 90 1418 208 1504 c 0,16,17
 379 1630 379 1630 778 1630 c 0,18,19
 1282 1630 1282 1630 1417 1438 c 0,20,21
 1472 1360 1472 1360 1472 1226 c 2,22,-1
 1472 370 l 2,23,24
 1472 150 1472 150 1300.5 55.5 c 128,-1,25
 1129 -39 1129 -39 778 -39 c 1,8,-1
EndSplineSet
EndChar

StartChar: Thorn
Encoding: 222 222 157
Width: 1534
GlyphClass: 2
Flags: W
LayerCount: 2
Fore
SplineSet
104 1599 m 1,0,-1
 706 1599 l 1,1,-1
 706 1413 l 1,2,-1
 843 1413 l 2,3,4
 1132 1413 1132 1413 1284 1347 c 0,5,6
 1457 1272 1457 1272 1466 1107 c 0,7,8
 1469 1062 1469 1062 1469 1022 c 2,9,-1
 1469 641 l 2,10,11
 1469 524 1469 524 1447 469 c 0,12,13
 1411 382 1411 382 1326 336 c 0,14,15
 1167 250 1167 250 843 250 c 2,16,-1
 706 250 l 1,17,-1
 706 0 l 1,18,-1
 104 0 l 1,19,-1
 104 1599 l 1,0,-1
706 482 m 1,20,-1
 869 482 l 1,21,-1
 869 1182 l 1,22,-1
 706 1182 l 1,23,-1
 706 482 l 1,20,-1
EndSplineSet
EndChar

StartChar: germandbls
Encoding: 223 223 158
Width: 1389
GlyphClass: 2
Flags: W
LayerCount: 2
Fore
SplineSet
595 -205 m 1,0,-1
 99 -205 l 1,1,-1
 99 1217 l 2,2,3
 99 1397 99 1397 200 1478 c 0,4,5
 348 1595 348 1595 715 1595 c 0,6,7
 925 1595 925 1595 1058 1539 c 128,-1,8
 1191 1483 1191 1483 1236 1350 c 0,9,10
 1258 1285 1258 1285 1258 1170 c 0,11,12
 1258 986 1258 986 1122 909 c 0,13,14
 1062 876 1062 876 986 870 c 1,15,16
 1204 858 1204 858 1293 703 c 0,17,18
 1327 644 1327 644 1327 553 c 2,19,-1
 1327 258 l 2,20,21
 1327 87 1327 87 1192.5 25 c 128,-1,22
 1058 -37 1058 -37 776 -37 c 2,23,-1
 692 -37 l 1,24,-1
 692 194 l 1,25,-1
 831 194 l 1,26,-1
 831 750 l 1,27,-1
 719 750 l 1,28,-1
 719 981 l 1,29,-1
 831 981 l 1,30,-1
 831 1358 l 1,31,-1
 595 1358 l 1,32,-1
 595 -205 l 1,0,-1
EndSplineSet
EndChar

StartChar: ae
Encoding: 230 230 165
Width: 2144
GlyphClass: 2
Flags: W
LayerCount: 2
Fore
SplineSet
664 915 m 1,0,1
 416 907 416 907 140 894 c 1,2,3
 129 958 129 958 129 1014 c 128,-1,4
 129 1070 129 1070 149 1122 c 0,5,6
 234 1343 234 1343 697 1343 c 0,7,8
 961 1343 961 1343 1074 1261 c 1,9,-1
 1072 1263 l 1,10,11
 1197 1345 1197 1345 1458 1345 c 128,-1,12
 1719 1345 1719 1345 1877 1279 c 0,13,14
 2057 1203 2057 1203 2071 1040 c 0,15,16
 2075 1001 2075 1001 2075 956 c 2,17,-1
 2075 606 l 1,18,-1
 1359 606 l 1,19,-1
 1359 252 l 1,20,-1
 1503 252 l 1,21,-1
 1503 501 l 1,22,-1
 2074 501 l 1,23,-1
 2074 354 l 1,24,25
 2070 166 2070 166 1963 83 c 0,26,27
 1810 -36 1810 -36 1427 -36 c 0,28,29
 1223 -36 1223 -36 1079 77 c 1,30,31
 882 -36 882 -36 593.5 -36 c 128,-1,32
 305 -36 305 -36 175 97 c 0,33,34
 69 206 69 206 69 388 c 0,35,36
 69 613 69 613 186 718.5 c 128,-1,37
 303 824 303 824 538 824 c 0,38,39
 674 824 674 824 787 783 c 1,40,-1
 787 1054 l 1,41,-1
 664 1054 l 1,42,-1
 664 915 l 1,0,1
637 604 m 1,43,-1
 637 252 l 1,44,-1
 787 252 l 1,45,-1
 787 604 l 1,46,-1
 637 604 l 1,43,-1
1359 801 m 1,47,-1
 1503 801 l 1,48,-1
 1503 1055 l 1,49,-1
 1359 1055 l 1,50,-1
 1359 801 l 1,47,-1
EndSplineSet
EndChar

StartChar: eth
Encoding: 240 240 175
Width: 1395
GlyphClass: 2
Flags: W
LayerCount: 2
Fore
SplineSet
991 1578 m 1,0,1
 1337 1246 1337 1246 1337 807 c 0,2,3
 1337 475 1337 475 1303 334.5 c 128,-1,4
 1269 194 1269 194 1219 135 c 128,-1,5
 1169 76 1169 76 1119 45 c 0,6,7
 984 -37 984 -37 708 -37 c 0,8,9
 334 -37 334 -37 196 93 c 0,10,11
 141 145 141 145 106.5 236 c 128,-1,12
 72 327 72 327 72 522 c 128,-1,13
 72 717 72 717 112.5 838 c 128,-1,14
 153 959 153 959 269.5 1028 c 128,-1,15
 386 1097 386 1097 623 1097 c 2,16,-1
 763 1097 l 1,17,18
 763 1195 763 1195 624 1324 c 1,19,-1
 372 1151 l 1,20,-1
 302 1275 l 1,21,-1
 507 1416 l 1,22,23
 406 1482 406 1482 353 1510 c 2,24,-1
 286 1546 l 1,25,-1
 510 1887 l 1,26,-1
 511 1889 l 1,27,28
 711 1806 711 1806 880 1674 c 1,29,-1
 1088 1817 l 1,30,-1
 1159 1694 l 1,31,-1
 991 1578 l 1,0,1
762 828 m 1,32,-1
 640 828 l 1,33,-1
 640 238 l 1,34,-1
 762 238 l 1,35,-1
 762 828 l 1,32,-1
EndSplineSet
EndChar

StartChar: divide
Encoding: 247 247 182
Width: 1286
GlyphClass: 2
Flags: W
LayerCount: 2
Fore
SplineSet
901 92 m 1,0,-1
 394 92 l 1,1,-1
 394 559 l 1,2,-1
 901 559 l 1,3,-1
 901 92 l 1,0,-1
901 1000 m 1,4,-1
 394 1000 l 1,5,-1
 394 1497 l 1,6,-1
 901 1497 l 1,7,-1
 901 1000 l 1,4,-1
1229 908 m 1,8,-1
 1229 670 l 1,9,-1
 67 670 l 1,10,-1
 67 908 l 1,11,-1
 1229 908 l 1,8,-1
EndSplineSet
EndChar

StartChar: oslash
Encoding: 248 248 183
Width: 1465
GlyphClass: 2
Flags: W
LayerCount: 2
Fore
SplineSet
744 1344 m 1,0,1
 1094 1344 1094 1344 1255 1249 c 1,2,-1
 1348 1344 l 1,3,-1
 1406 1286 l 1,4,-1
 1320 1198 l 1,5,6
 1395 1122 1395 1122 1395 952 c 2,7,-1
 1395 352 l 2,8,9
 1395 220 1395 220 1347 144 c 0,10,11
 1230 -39 1230 -39 744 -39 c 0,12,13
 562 -39 562 -39 433.5 -16.5 c 128,-1,14
 305 6 305 6 215 65 c 1,15,-1
 114 -39 l 1,16,-1
 56 19 l 1,17,-1
 153 118 l 1,18,19
 86 194 86 194 86 352 c 2,20,-1
 86 952 l 2,21,22
 86 1141 86 1141 194 1222 c 1,23,24
 352 1343 352 1343 745 1343 c 1,25,-1
 744 1344 l 1,0,1
657 234 m 1,26,-1
 823 234 l 1,27,-1
 823 689 l 1,28,-1
 657 519 l 1,29,-1
 657 234 l 1,26,-1
657 636 m 1,30,-1
 823 806 l 1,31,-1
 823 1106 l 1,32,-1
 657 1106 l 1,33,-1
 657 636 l 1,30,-1
EndSplineSet
EndChar

StartChar: thorn
Encoding: 254 254 189
Width: 1430
GlyphClass: 2
Flags: W
LayerCount: 2
Fore
SplineSet
675 1225 m 1,0,-1
 674 1225 l 1,1,2
 700 1282 700 1282 769 1302.5 c 128,-1,3
 838 1323 838 1323 948 1323 c 0,4,5
 1144 1323 1144 1323 1248.5 1245 c 128,-1,6
 1353 1167 1353 1167 1360 995 c 0,7,8
 1362 933 1362 933 1362 908 c 2,9,-1
 1362 390 l 2,10,11
 1362 262 1362 262 1334 180 c 1,12,13
 1267 -24 1267 -24 948 -24 c 0,14,15
 754 -24 754 -24 706 36 c 1,16,17
 681 69 681 69 675 78 c 1,18,-1
 675 -409 l 1,19,-1
 104 -409 l 1,20,-1
 104 1602 l 1,21,-1
 675 1602 l 1,22,-1
 675 1225 l 1,0,-1
674 231 m 1,23,-1
 788 231 l 1,24,-1
 788 1069 l 1,25,-1
 674 1069 l 1,26,-1
 674 231 l 1,23,-1
EndSplineSet
EndChar

StartChar: Dcroat
Encoding: 272 272 205
Width: 1449
GlyphClass: 2
Flags: W
LayerCount: 2
Fore
SplineSet
773 868 m 1,0,-1
 773 726 l 1,1,-1
 52 726 l 1,2,-1
 52 868 l 1,3,-1
 773 868 l 1,0,-1
645 237 m 1,4,-1
 881 237 l 1,5,-1
 881 1358 l 1,6,-1
 645 1358 l 1,7,-1
 645 237 l 1,4,-1
1378 393 m 1,8,-1
 1376 392 l 1,9,10
 1376 261 1376 261 1338 186 c 0,11,12
 1245 0 1245 0 817 0 c 2,13,-1
 146 0 l 1,14,-1
 146 1595 l 1,15,-1
 817 1595 l 2,16,17
 1075 1595 1075 1595 1211 1529 c 0,18,19
 1366 1455 1366 1455 1375 1289 c 0,20,21
 1378 1244 1378 1244 1378 1204 c 2,22,-1
 1378 393 l 1,8,-1
EndSplineSet
EndChar

StartChar: gcommaaccent
Encoding: 291 291 218
Width: 1470
GlyphClass: 2
Flags: W
LayerCount: 2
Fore
SplineSet
839 205 m 1,0,1
 749 91 749 91 508 91 c 0,2,3
 88 91 88 91 88 482 c 2,4,-1
 88 927 l 2,5,6
 88 1327 88 1327 511 1327 c 1,7,-1
 511 1326 l 1,8,9
 747 1326 747 1326 850 1187 c 1,10,-1
 886 1299 l 1,11,-1
 1397 1299 l 1,12,-1
 1397 236 l 2,13,14
 1397 -78 1397 -78 1222.5 -225 c 128,-1,15
 1048 -372 1048 -372 678 -372 c 0,16,17
 422 -372 422 -372 201 -311 c 1,18,-1
 258 -20 l 1,19,20
 447 -71 447 -71 678 -57 c 0,21,22
 791 -50 791 -50 839 -22 c 1,23,-1
 839 205 l 1,0,1
826 1104 m 1,24,-1
 659 1104 l 1,25,-1
 659 316 l 1,26,-1
 826 316 l 1,27,-1
 826 1104 l 1,24,-1
EndSplineSet
EndChar

StartChar: Hbar
Encoding: 294 294 219
Width: 1703
GlyphClass: 2
Flags: W
LayerCount: 2
Fore
SplineSet
1659 1349 m 1,0,-1
 1659 1158 l 1,1,-1
 54 1158 l 1,2,-1
 54 1349 l 1,3,-1
 1659 1349 l 1,0,-1
1553 1595 m 1,4,-1
 1553 0 l 1,5,-1
 948 0 l 1,6,-1
 948 688 l 1,7,-1
 755 688 l 1,8,-1
 755 0 l 1,9,-1
 151 0 l 1,10,-1
 151 1595 l 1,11,-1
 755 1595 l 1,12,-1
 755 938 l 1,13,-1
 948 938 l 1,14,-1
 948 1595 l 1,15,-1
 1553 1595 l 1,4,-1
EndSplineSet
EndChar

StartChar: hbar
Encoding: 295 295 220
Width: 1511
GlyphClass: 2
Flags: W
LayerCount: 2
Fore
SplineSet
1188 1619 m 1,0,-1
 1188 1450 l 1,1,-1
 43 1450 l 1,2,-1
 43 1619 l 1,3,-1
 1188 1619 l 1,0,-1
1023 1343 m 0,4,5
 1439 1343 1439 1343 1439 945 c 2,6,-1
 1439 0 l 1,7,-1
 868 0 l 1,8,-1
 868 1065 l 1,9,-1
 702 1065 l 1,10,-1
 702 0 l 1,11,-1
 130 0 l 1,12,-1
 130 1710 l 1,13,-1
 702 1710 l 1,14,-1
 702 1210 l 1,15,16
 741 1274 741 1274 828.5 1308.5 c 128,-1,17
 916 1343 916 1343 1023 1343 c 0,4,5
EndSplineSet
EndChar

StartChar: dotlessi
Encoding: 305 305 230
Width: 744
GlyphClass: 2
Flags: W
LayerCount: 2
Fore
SplineSet
669 0 m 1,0,-1
 100 0 l 1,1,-1
 100 1298 l 1,2,-1
 669 1298 l 1,3,-1
 669 0 l 1,0,-1
EndSplineSet
EndChar

StartChar: IJ
Encoding: 306 306 231
Width: 1667
GlyphClass: 2
Flags: W
LayerCount: 2
Fore
SplineSet
720 1595 m 1,0,-1
 720 0 l 1,1,-1
 116 0 l 1,2,-1
 116 1595 l 1,3,-1
 720 1595 l 1,0,-1
916 -75 m 1,4,-1
 916 -76 l 1,5,6
 883 -76 883 -76 819 -74 c 1,7,-1
 819 198 l 1,8,-1
 992 198 l 1,9,-1
 992 1594 l 1,10,-1
 1596 1594 l 1,11,-1
 1596 334 l 2,12,13
 1596 63 1596 63 1314 -25 c 0,14,15
 1153 -75 1153 -75 916 -75 c 1,4,-1
EndSplineSet
EndChar

StartChar: ij
Encoding: 307 307 232
Width: 1646
GlyphClass: 2
Flags: W
LayerCount: 2
Fore
SplineSet
678 0 m 1,0,-1
 107 0 l 1,1,-1
 107 1300 l 1,2,-1
 678 1300 l 1,3,-1
 678 0 l 1,0,-1
678 1709 m 1,4,-1
 678 1425 l 1,5,-1
 107 1425 l 1,6,-1
 107 1709 l 1,7,-1
 678 1709 l 1,4,-1
1561 94 m 2,8,9
 1561 -122 1561 -122 1444 -224 c 128,-1,10
 1327 -326 1327 -326 1100 -326 c 0,11,12
 936 -326 936 -326 830 -305 c 1,13,-1
 800 -66 l 1,14,-1
 989 -66 l 1,15,-1
 989 1300 l 1,16,-1
 1561 1300 l 1,17,-1
 1561 94 l 2,8,9
1561 1709 m 1,18,-1
 1561 1425 l 1,19,-1
 989 1425 l 1,20,-1
 989 1709 l 1,21,-1
 1561 1709 l 1,18,-1
EndSplineSet
EndChar

StartChar: kgreenlandic
Encoding: 312 312 237
Width: 1590
GlyphClass: 2
Flags: W
LayerCount: 2
Fore
SplineSet
100 0 m 1,0,-1
 100 1299 l 1,1,-1
 684 1299 l 1,2,-1
 684 858 l 1,3,-1
 952 1300 l 1,4,-1
 1538 1300 l 1,5,-1
 1203 790 l 1,6,-1
 1561 0 l 1,7,-1
 986 0 l 1,8,-1
 797 455 l 1,9,-1
 684 318 l 1,10,-1
 684 0 l 1,11,-1
 100 0 l 1,0,-1
EndSplineSet
EndChar

StartChar: Ldot
Encoding: 319 319 244
Width: 1094
GlyphClass: 2
Flags: W
LayerCount: 2
Fore
SplineSet
1340 950 m 1,0,-1
 833 950 l 1,1,-1
 833 1417 l 1,2,-1
 1340 1417 l 1,3,-1
 1340 950 l 1,0,-1
103 0 m 1,4,-1
 103 1595 l 1,5,-1
 707 1595 l 1,6,-1
 707 241 l 1,7,-1
 1048 241 l 1,8,-1
 1048 0 l 1,9,-1
 103 0 l 1,4,-1
EndSplineSet
EndChar

StartChar: ldot
Encoding: 320 320 245
Width: 1313
GlyphClass: 2
Flags: W
LayerCount: 2
Fore
SplineSet
1313 655 m 1,0,-1
 806 655 l 1,1,-1
 806 1122 l 1,2,-1
 1313 1122 l 1,3,-1
 1313 655 l 1,0,-1
676 0 m 1,4,-1
 105 0 l 1,5,-1
 105 1710 l 1,6,-1
 676 1710 l 1,7,-1
 676 0 l 1,4,-1
EndSplineSet
EndChar

StartChar: Lslash
Encoding: 321 321 246
Width: 1534
GlyphClass: 2
Flags: W
LayerCount: 2
Fore
SplineSet
1320 1072 m 1,0,-1
 72 410 l 1,1,-1
 72 750 l 1,2,-1
 1320 1410 l 1,3,-1
 1320 1072 l 1,0,-1
377 0 m 1,4,-1
 377 1595 l 1,5,-1
 981 1595 l 1,6,-1
 981 241 l 1,7,-1
 1322 241 l 1,8,-1
 1322 0 l 1,9,-1
 377 0 l 1,4,-1
EndSplineSet
EndChar

StartChar: lslash
Encoding: 322 322 247
Width: 1145
GlyphClass: 2
Flags: W
LayerCount: 2
Fore
SplineSet
1094 1023 m 1,0,-1
 64 539 l 1,1,-1
 64 788 l 1,2,-1
 1094 1271 l 1,3,-1
 1094 1023 l 1,0,-1
852 0 m 1,4,-1
 281 0 l 1,5,-1
 281 1710 l 1,6,-1
 852 1710 l 1,7,-1
 852 0 l 1,4,-1
EndSplineSet
EndChar

StartChar: OE
Encoding: 338 338 260
Width: 1832
GlyphClass: 2
Flags: W
LayerCount: 2
Fore
SplineSet
722 0 m 1,0,-1
 722 -1 l 1,1,2
 279 -1 279 -1 148 146 c 0,3,4
 101 200 101 200 95 287 c 0,5,6
 92 330 92 330 92 371 c 2,7,-1
 92 1227 l 2,8,9
 92 1355 92 1355 136 1425 c 0,10,11
 243 1595 243 1595 722 1595 c 2,12,-1
 1768 1595 l 1,13,-1
 1768 1354 l 1,14,-1
 1424 1354 l 1,15,-1
 1424 961 l 1,16,-1
 1744 961 l 1,17,-1
 1744 711 l 1,18,-1
 1424 711 l 1,19,-1
 1424 244 l 1,20,-1
 1768 244 l 1,21,-1
 1768 0 l 1,22,-1
 722 0 l 1,0,-1
678 232 m 1,23,-1
 792 232 l 1,24,-1
 792 1363 l 1,25,-1
 678 1363 l 1,26,-1
 678 232 l 1,23,-1
EndSplineSet
EndChar

StartChar: oe
Encoding: 339 339 261
Width: 2136
GlyphClass: 2
Flags: W
LayerCount: 2
Fore
SplineSet
1889 39 m 0,0,1
 1736 -28 1736 -28 1434 -28 c 128,-1,2
 1132 -28 1132 -28 1075 96 c 1,3,-1
 1074 94 l 1,4,5
 989 -30 989 -30 706 -30 c 128,-1,6
 423 -30 423 -30 260 41.5 c 128,-1,7
 97 113 97 113 88 282 c 0,8,9
 85 327 85 327 85 367 c 2,10,-1
 85 930 l 2,11,12
 85 1066 85 1066 127.5 1141.5 c 128,-1,13
 170 1217 170 1217 268 1262 c 1,14,15
 420 1330 420 1330 710 1330 c 0,16,17
 878 1330 878 1330 965 1291 c 128,-1,18
 1052 1252 1052 1252 1074 1211 c 1,19,20
 1151 1330 1151 1330 1443.5 1330 c 128,-1,21
 1736 1330 1736 1330 1888 1262 c 0,22,23
 2059 1186 2059 1186 2067 1016 c 0,24,25
 2069 956 2069 956 2069 931 c 2,26,-1
 2065 620 l 1,27,-1
 1351 620 l 1,28,-1
 1351 249 l 1,29,-1
 1502 249 l 1,30,-1
 1502 554 l 1,31,-1
 2069 554 l 1,32,-1
 2069 368 l 2,33,34
 2069 233 2069 233 2027.5 157.5 c 128,-1,35
 1986 82 1986 82 1889 39 c 0,0,1
649 248 m 1,36,-1
 799 248 l 1,37,-1
 799 1051 l 1,38,-1
 649 1051 l 1,39,-1
 649 248 l 1,36,-1
1350 825 m 1,40,-1
 1501 825 l 1,41,-1
 1501 1051 l 1,42,-1
 1350 1051 l 1,43,-1
 1350 825 l 1,40,-1
EndSplineSet
EndChar

StartChar: uni0237
Encoding: 567 567 297
Width: 868
GlyphClass: 2
Flags: W
LayerCount: 2
Fore
SplineSet
784 94 m 2,0,1
 784 -122 784 -122 667 -224 c 128,-1,2
 550 -326 550 -326 323 -326 c 0,3,4
 159 -326 159 -326 53 -305 c 1,5,-1
 23 -66 l 1,6,-1
 212 -66 l 1,7,-1
 212 1300 l 1,8,-1
 784 1300 l 1,9,-1
 784 94 l 2,0,1
EndSplineSet
EndChar

StartChar: circumflex
Encoding: 710 710 298
Width: 954
GlyphClass: 2
Flags: W
LayerCount: 2
Fore
SplineSet
72 1527 m 2,0,-1
 335 1936 l 1,1,2
 380 2008 380 2008 476 2008 c 128,-1,3
 572 2008 572 2008 619 1936 c 2,4,-1
 882 1527 l 2,5,6
 900 1498 900 1498 900 1472.5 c 128,-1,7
 900 1447 900 1447 882 1429 c 128,-1,8
 864 1411 864 1411 836 1411 c 128,-1,9
 808 1411 808 1411 780 1433 c 2,10,-1
 477 1668 l 1,11,-1
 174 1433 l 2,12,13
 148 1413 148 1413 120 1413 c 128,-1,14
 92 1413 92 1413 73 1430.5 c 128,-1,15
 54 1448 54 1448 54 1473 c 128,-1,16
 54 1498 54 1498 72 1527 c 2,0,-1
EndSplineSet
EndChar

StartChar: caron
Encoding: 711 711 299
Width: 954
GlyphClass: 2
Flags: W
LayerCount: 2
Fore
SplineSet
619 1483 m 2,0,1
 572 1411 572 1411 476 1411 c 128,-1,2
 380 1411 380 1411 335 1483 c 1,3,-1
 72 1892 l 2,4,5
 54 1920 54 1920 54 1945.5 c 128,-1,6
 54 1971 54 1971 73 1988.5 c 128,-1,7
 92 2006 92 2006 120 2006 c 128,-1,8
 148 2006 148 2006 174 1986 c 2,9,-1
 477 1751 l 1,10,-1
 780 1986 l 2,11,12
 808 2008 808 2008 836 2008 c 128,-1,13
 864 2008 864 2008 882 1990 c 128,-1,14
 900 1972 900 1972 900 1946 c 128,-1,15
 900 1920 900 1920 882 1892 c 2,16,-1
 619 1483 l 2,0,1
EndSplineSet
EndChar

StartChar: breve
Encoding: 728 728 300
Width: 1062
GlyphClass: 2
Flags: W
LayerCount: 2
Fore
SplineSet
537 1398 m 0,0,1
 219 1398 219 1398 128 1588 c 1,2,3
 75 1696 75 1696 75 1879 c 1,4,-1
 372 1879 l 1,5,6
 372 1792 372 1792 391.5 1758 c 128,-1,7
 411 1724 411 1724 445.5 1712.5 c 128,-1,8
 480 1701 480 1701 537 1701 c 0,9,10
 650 1701 650 1701 676 1746.5 c 128,-1,11
 702 1792 702 1792 702 1879 c 1,12,-1
 999 1879 l 1,13,14
 999 1590 999 1590 865 1485 c 0,15,16
 754 1398 754 1398 537 1398 c 0,0,1
EndSplineSet
EndChar

StartChar: dotaccent
Encoding: 729 729 301
Width: 670
GlyphClass: 2
Flags: W
LayerCount: 2
Fore
SplineSet
591 0 m 1,0,-1
 84 0 l 1,1,-1
 84 467 l 1,2,-1
 591 467 l 1,3,-1
 591 0 l 1,0,-1
EndSplineSet
EndChar

StartChar: ring
Encoding: 730 730 302
Width: 805
GlyphClass: 2
Flags: W
LayerCount: 2
Fore
SplineSet
216 164.5 m 128,-1,1
 136 219 136 219 104 292 c 128,-1,2
 72 365 72 365 72 451 c 128,-1,3
 72 537 72 537 129 614 c 0,4,5
 231 752 231 752 405 752 c 0,6,7
 514 752 514 752 594 697 c 128,-1,8
 674 642 674 642 706 569 c 128,-1,9
 738 496 738 496 738 410 c 128,-1,10
 738 324 738 324 680 248 c 0,11,12
 576 110 576 110 405 110 c 0,13,0
 296 110 296 110 216 164.5 c 128,-1,1
489 517 m 128,-1,15
 454 552 454 552 402.5 552 c 128,-1,16
 351 552 351 552 316.5 517.5 c 128,-1,17
 282 483 282 483 282 431 c 128,-1,18
 282 379 282 379 317 344 c 128,-1,19
 352 309 352 309 402.5 309 c 128,-1,20
 453 309 453 309 488.5 344.5 c 128,-1,21
 524 380 524 380 524 431 c 128,-1,14
 524 482 524 482 489 517 c 128,-1,15
EndSplineSet
EndChar

StartChar: ogonek
Encoding: 731 731 303
Width: 693
GlyphClass: 2
Flags: W
LayerCount: 2
Fore
SplineSet
435 72 m 1,0,-1
 506 0 l 1,1,2
 455 -34 455 -34 425.5 -86.5 c 128,-1,3
 396 -139 396 -139 396 -189 c 128,-1,4
 396 -239 396 -239 427.5 -271 c 128,-1,5
 459 -303 459 -303 518.5 -303 c 128,-1,6
 578 -303 578 -303 656 -274 c 1,7,-1
 656 -589 l 1,8,9
 548 -630 548 -630 455 -630 c 0,10,11
 305 -630 305 -630 215 -538 c 128,-1,12
 125 -446 125 -446 125 -322.5 c 128,-1,13
 125 -199 125 -199 203 -93.5 c 128,-1,14
 281 12 281 12 435 72 c 1,0,-1
EndSplineSet
EndChar

StartChar: tilde
Encoding: 732 732 304
Width: 1422
GlyphClass: 2
Flags: W
LayerCount: 2
Fore
SplineSet
375 621 m 1,0,1
 375 453 375 453 487 453 c 0,2,3
 501 453 501 453 511.5 456 c 128,-1,4
 522 459 522 459 527.5 460.5 c 128,-1,5
 533 462 533 462 540.5 466.5 c 128,-1,6
 548 471 548 471 551.5 473 c 128,-1,7
 555 475 555 475 563.5 480.5 c 128,-1,8
 572 486 572 486 574 487.5 c 128,-1,9
 576 489 576 489 585 495.5 c 128,-1,10
 594 502 594 502 634 532 c 0,11,12
 788 646 788 646 931 646 c 0,13,14
 1178 646 1178 646 1265 537 c 0,15,16
 1323 465 1323 465 1341 360.5 c 128,-1,17
 1359 256 1359 256 1359 96 c 1,18,-1
 1066 96 l 1,19,20
 1066 166 1066 166 1039.5 213 c 128,-1,21
 1013 260 1013 260 967 260 c 128,-1,22
 921 260 921 260 898 244.5 c 128,-1,23
 875 229 875 229 821 186 c 0,24,25
 678 70 678 70 496.5 70 c 128,-1,26
 315 70 315 70 228 145 c 128,-1,27
 141 220 141 220 106 376 c 1,28,29
 79 470 79 470 79 621 c 1,30,-1
 375 621 l 1,0,1
EndSplineSet
EndChar

StartChar: hungarumlaut
Encoding: 733 733 305
Width: 873
GlyphClass: 2
Flags: W
LayerCount: 2
Fore
SplineSet
764 1385 m 128,-1,1
 746 1399 746 1399 746 1424.5 c 128,-1,2
 746 1450 746 1450 780.5 1481 c 128,-1,3
 815 1512 815 1512 905 1595.5 c 128,-1,4
 995 1679 995 1679 1090 1766 c 128,-1,5
 1185 1853 1185 1853 1251.5 1891.5 c 128,-1,6
 1318 1930 1318 1930 1386 1930 c 128,-1,7
 1454 1930 1454 1930 1503.5 1877.5 c 128,-1,8
 1553 1825 1553 1825 1553 1762 c 0,9,10
 1553 1638 1553 1638 1437 1570 c 0,11,12
 1371 1532 1371 1532 1241.5 1493 c 128,-1,13
 1112 1454 1112 1454 1002 1423 c 128,-1,14
 892 1392 892 1392 859.5 1381.5 c 128,-1,15
 827 1371 827 1371 804.5 1371 c 128,-1,0
 782 1371 782 1371 764 1385 c 128,-1,1
73 1385 m 128,-1,17
 55 1399 55 1399 55 1424.5 c 128,-1,18
 55 1450 55 1450 89.5 1481 c 128,-1,19
 124 1512 124 1512 214 1595.5 c 128,-1,20
 304 1679 304 1679 399 1766 c 128,-1,21
 494 1853 494 1853 560.5 1891.5 c 128,-1,22
 627 1930 627 1930 695 1930 c 128,-1,23
 763 1930 763 1930 812.5 1877.5 c 128,-1,24
 862 1825 862 1825 862 1762 c 0,25,26
 862 1638 862 1638 746 1570 c 0,27,28
 680 1532 680 1532 550.5 1493 c 128,-1,29
 421 1454 421 1454 311 1423 c 128,-1,30
 201 1392 201 1392 168.5 1381.5 c 128,-1,31
 136 1371 136 1371 113.5 1371 c 128,-1,16
 91 1371 91 1371 73 1385 c 128,-1,17
EndSplineSet
EndChar

StartChar: endash
Encoding: 8211 8211 309
Width: 1005
GlyphClass: 2
Flags: W
LayerCount: 2
Fore
SplineSet
920 897 m 1,0,-1
 920 461 l 1,1,-1
 87 461 l 1,2,-1
 87 897 l 1,3,-1
 920 897 l 1,0,-1
EndSplineSet
EndChar

StartChar: emdash
Encoding: 8212 8212 310
Width: 1857
GlyphClass: 2
Flags: W
LayerCount: 2
Fore
SplineSet
1772 897 m 1,0,-1
 1772 461 l 1,1,-1
 87 461 l 1,2,-1
 87 897 l 1,3,-1
 1772 897 l 1,0,-1
EndSplineSet
EndChar

StartChar: quoteleft
Encoding: 8216 8216 311
Width: 722
GlyphClass: 2
Flags: W
LayerCount: 2
Fore
SplineSet
517 1333.5 m 128,-1,1
 569 1279 569 1279 569 1186 c 128,-1,2
 569 1093 569 1093 511.5 1040 c 128,-1,3
 454 987 454 987 360.5 987 c 128,-1,4
 267 987 267 987 211 1055 c 128,-1,5
 155 1123 155 1123 155 1210 c 128,-1,6
 155 1297 155 1297 178.5 1367.5 c 128,-1,7
 202 1438 202 1438 245 1497 c 128,-1,8
 288 1556 288 1556 355.5 1593 c 128,-1,9
 423 1630 423 1630 502 1630 c 0,10,11
 524 1630 524 1630 546 1627 c 1,12,-1
 546 1518 l 1,13,14
 483 1517 483 1517 438.5 1484.5 c 128,-1,15
 394 1452 394 1452 390 1396 c 1,16,0
 465 1388 465 1388 517 1333.5 c 128,-1,1
EndSplineSet
EndChar

StartChar: quoteright
Encoding: 8217 8217 312
Width: 706
GlyphClass: 2
Flags: W
LayerCount: 2
Fore
SplineSet
206 1283.5 m 128,-1,1
 154 1338 154 1338 154 1431 c 128,-1,2
 154 1524 154 1524 214.5 1577 c 128,-1,3
 275 1630 275 1630 368 1630 c 128,-1,4
 461 1630 461 1630 514.5 1562 c 128,-1,5
 568 1494 568 1494 568 1407 c 128,-1,6
 568 1320 568 1320 544.5 1249.5 c 128,-1,7
 521 1179 521 1179 478 1120 c 128,-1,8
 435 1061 435 1061 367.5 1024 c 128,-1,9
 300 987 300 987 221 987 c 0,10,11
 200 987 200 987 177 990 c 1,12,-1
 177 1099 l 1,13,14
 240 1100 240 1100 284.5 1132.5 c 128,-1,15
 329 1165 329 1165 333 1221 c 1,16,0
 258 1229 258 1229 206 1283.5 c 128,-1,1
EndSplineSet
EndChar

StartChar: quotesinglbase
Encoding: 8218 8218 313
Width: 648
GlyphClass: 2
Flags: W
LayerCount: 2
Fore
SplineSet
308 -409 m 0,0,1
 269 -409 269 -409 253 -345.5 c 128,-1,2
 237 -282 237 -282 178.5 -74.5 c 128,-1,3
 120 133 120 133 120 212.5 c 128,-1,4
 120 292 120 292 175 337.5 c 128,-1,5
 230 383 230 383 307 383 c 128,-1,6
 384 383 384 383 442.5 335.5 c 128,-1,7
 501 288 501 288 501 209.5 c 128,-1,8
 501 131 501 131 440 -75.5 c 128,-1,9
 379 -282 379 -282 368 -330 c 0,10,11
 350 -409 350 -409 308 -409 c 0,0,1
EndSplineSet
EndChar

StartChar: quotedblleft
Encoding: 8220 8220 314
Width: 1339
GlyphClass: 2
Flags: W
LayerCount: 2
Fore
SplineSet
1119 1333.5 m 128,-1,1
 1171 1279 1171 1279 1171 1186 c 128,-1,2
 1171 1093 1171 1093 1110.5 1040 c 128,-1,3
 1050 987 1050 987 957 987 c 128,-1,4
 864 987 864 987 810.5 1055 c 128,-1,5
 757 1123 757 1123 757 1210 c 128,-1,6
 757 1297 757 1297 780.5 1367.5 c 128,-1,7
 804 1438 804 1438 847 1497 c 128,-1,8
 890 1556 890 1556 957.5 1593 c 128,-1,9
 1025 1630 1025 1630 1104 1630 c 0,10,11
 1126 1630 1126 1630 1148 1627 c 1,12,-1
 1148 1518 l 1,13,14
 1085 1517 1085 1517 1040.5 1484.5 c 128,-1,15
 996 1452 996 1452 992 1396 c 1,16,0
 1067 1388 1067 1388 1119 1333.5 c 128,-1,1
616 1333.5 m 128,-1,18
 668 1279 668 1279 668 1186 c 128,-1,19
 668 1093 668 1093 607.5 1040 c 128,-1,20
 547 987 547 987 454 987 c 128,-1,21
 361 987 361 987 307.5 1055 c 128,-1,22
 254 1123 254 1123 254 1210 c 128,-1,23
 254 1297 254 1297 277.5 1367.5 c 128,-1,24
 301 1438 301 1438 344 1497 c 128,-1,25
 387 1556 387 1556 454.5 1593 c 128,-1,26
 522 1630 522 1630 601 1630 c 0,27,28
 622 1630 622 1630 645 1627 c 1,29,-1
 645 1518 l 1,30,31
 582 1517 582 1517 537.5 1484.5 c 128,-1,32
 493 1452 493 1452 489 1396 c 1,33,17
 564 1388 564 1388 616 1333.5 c 128,-1,18
EndSplineSet
EndChar

StartChar: quotedblright
Encoding: 8221 8221 315
Width: 1327
GlyphClass: 2
Flags: W
LayerCount: 2
Fore
SplineSet
306 1283.5 m 128,-1,1
 254 1338 254 1338 254 1431 c 128,-1,2
 254 1524 254 1524 314.5 1577 c 128,-1,3
 375 1630 375 1630 468 1630 c 128,-1,4
 561 1630 561 1630 614.5 1562 c 128,-1,5
 668 1494 668 1494 668 1407 c 128,-1,6
 668 1320 668 1320 644.5 1249.5 c 128,-1,7
 621 1179 621 1179 578 1120 c 128,-1,8
 535 1061 535 1061 467.5 1024 c 128,-1,9
 400 987 400 987 321 987 c 0,10,11
 300 987 300 987 277 990 c 1,12,-1
 277 1099 l 1,13,14
 340 1100 340 1100 384.5 1132.5 c 128,-1,15
 429 1165 429 1165 433 1221 c 1,16,0
 358 1229 358 1229 306 1283.5 c 128,-1,1
809 1283.5 m 128,-1,18
 757 1338 757 1338 757 1431 c 128,-1,19
 757 1524 757 1524 817.5 1577 c 128,-1,20
 878 1630 878 1630 971 1630 c 128,-1,21
 1064 1630 1064 1630 1117.5 1562 c 128,-1,22
 1171 1494 1171 1494 1171 1407 c 128,-1,23
 1171 1320 1171 1320 1147.5 1249.5 c 128,-1,24
 1124 1179 1124 1179 1081 1120 c 128,-1,25
 1038 1061 1038 1061 970.5 1024 c 128,-1,26
 903 987 903 987 824 987 c 0,27,28
 802 987 802 987 780 990 c 1,29,-1
 780 1099 l 1,30,31
 843 1100 843 1100 887.5 1132.5 c 128,-1,32
 932 1165 932 1165 936 1221 c 1,33,17
 861 1229 861 1229 809 1283.5 c 128,-1,18
EndSplineSet
EndChar

StartChar: quotedblbase
Encoding: 8222 8222 316
Width: 1229
GlyphClass: 2
Flags: W
LayerCount: 2
Fore
SplineSet
344 -409 m 0,0,1
 305 -409 305 -409 289 -345.5 c 128,-1,2
 273 -282 273 -282 214.5 -74.5 c 128,-1,3
 156 133 156 133 156 212.5 c 128,-1,4
 156 292 156 292 211 337.5 c 128,-1,5
 266 383 266 383 343 383 c 128,-1,6
 420 383 420 383 478.5 335.5 c 128,-1,7
 537 288 537 288 537 209.5 c 128,-1,8
 537 131 537 131 476 -75.5 c 128,-1,9
 415 -282 415 -282 404 -330 c 0,10,11
 386 -409 386 -409 344 -409 c 0,0,1
841 -409 m 0,12,13
 802 -409 802 -409 786 -345.5 c 128,-1,14
 770 -282 770 -282 711.5 -74.5 c 128,-1,15
 653 133 653 133 653 212.5 c 128,-1,16
 653 292 653 292 708 337.5 c 128,-1,17
 763 383 763 383 840 383 c 128,-1,18
 917 383 917 383 975.5 335.5 c 128,-1,19
 1034 288 1034 288 1034 209.5 c 128,-1,20
 1034 131 1034 131 973 -75.5 c 128,-1,21
 912 -282 912 -282 901 -330 c 0,22,23
 883 -409 883 -409 841 -409 c 0,12,13
EndSplineSet
EndChar

StartChar: dagger
Encoding: 8224 8224 317
Width: 1061
GlyphClass: 2
Flags: W
LayerCount: 2
Fore
SplineSet
455 1002 m 1,0,1
 230 915 230 915 163 915 c 128,-1,2
 96 915 96 915 65 956.5 c 128,-1,3
 34 998 34 998 34 1056 c 128,-1,4
 34 1114 34 1114 65.5 1156.5 c 128,-1,5
 97 1199 97 1199 144 1199 c 0,6,7
 235 1199 235 1199 460 1110 c 1,8,9
 402 1224 402 1224 370 1307 c 128,-1,10
 338 1390 338 1390 338 1464 c 128,-1,11
 338 1538 338 1538 392.5 1582.5 c 128,-1,12
 447 1627 447 1627 523 1627 c 128,-1,13
 599 1627 599 1627 656 1582 c 128,-1,14
 713 1537 713 1537 713 1454 c 128,-1,15
 713 1371 713 1371 648 1231 c 0,16,17
 626 1185 626 1185 584 1103 c 1,18,19
 824 1199 824 1199 893.5 1199 c 128,-1,20
 963 1199 963 1199 994 1157 c 128,-1,21
 1025 1115 1025 1115 1025 1057.5 c 128,-1,22
 1025 1000 1025 1000 994 957.5 c 128,-1,23
 963 915 963 915 907.5 915 c 128,-1,24
 852 915 852 915 797.5 933 c 128,-1,25
 743 951 743 951 725 957 c 128,-1,26
 707 963 707 963 652.5 984 c 128,-1,27
 598 1005 598 1005 592 1007 c 1,28,29
 712 366 712 366 712 243.5 c 128,-1,30
 712 121 712 121 655.5 63 c 128,-1,31
 599 5 599 5 524 5 c 128,-1,32
 449 5 449 5 395 61.5 c 128,-1,33
 341 118 341 118 341 204 c 128,-1,34
 341 290 341 290 360 435 c 128,-1,35
 379 580 379 580 455 1002 c 1,0,1
EndSplineSet
EndChar

StartChar: daggerdbl
Encoding: 8225 8225 318
Width: 1061
GlyphClass: 2
Flags: W
LayerCount: 2
Fore
SplineSet
592 581 m 1,0,1
 831 673 831 673 915 673 c 0,2,3
 963 673 963 673 994 630.5 c 128,-1,4
 1025 588 1025 588 1025 530.5 c 128,-1,5
 1025 473 1025 473 994 431 c 128,-1,6
 963 389 963 389 893.5 389 c 128,-1,7
 824 389 824 389 584 485 c 1,8,9
 713 233 713 233 713 142 c 128,-1,10
 713 51 713 51 656 6 c 128,-1,11
 599 -39 599 -39 523 -39 c 128,-1,12
 447 -39 447 -39 392.5 5.5 c 128,-1,13
 338 50 338 50 338 124 c 128,-1,14
 338 198 338 198 370 281 c 128,-1,15
 402 364 402 364 460 478 c 1,16,17
 235 389 235 389 166 389 c 128,-1,18
 97 389 97 389 65.5 431.5 c 128,-1,19
 34 474 34 474 34 532 c 128,-1,20
 34 590 34 590 65 631.5 c 128,-1,21
 96 673 96 673 163 673 c 128,-1,22
 230 673 230 673 455 586 c 1,23,-1
 455 1002 l 1,24,25
 230 915 230 915 163 915 c 128,-1,26
 96 915 96 915 65 956.5 c 128,-1,27
 34 998 34 998 34 1056 c 128,-1,28
 34 1114 34 1114 65.5 1156.5 c 128,-1,29
 97 1199 97 1199 144 1199 c 0,30,31
 235 1199 235 1199 460 1110 c 1,32,33
 402 1224 402 1224 370 1307 c 128,-1,34
 338 1390 338 1390 338 1464 c 128,-1,35
 338 1538 338 1538 392.5 1582.5 c 128,-1,36
 447 1627 447 1627 523 1627 c 128,-1,37
 599 1627 599 1627 656 1582 c 128,-1,38
 713 1537 713 1537 713 1454 c 128,-1,39
 713 1371 713 1371 648 1231 c 0,40,41
 626 1185 626 1185 584 1103 c 1,42,43
 824 1199 824 1199 893.5 1199 c 128,-1,44
 963 1199 963 1199 994 1157 c 128,-1,45
 1025 1115 1025 1115 1025 1057.5 c 128,-1,46
 1025 1000 1025 1000 994 957.5 c 128,-1,47
 963 915 963 915 907.5 915 c 128,-1,48
 852 915 852 915 797.5 933 c 128,-1,49
 743 951 743 951 725 957 c 128,-1,50
 707 963 707 963 652.5 984 c 128,-1,51
 598 1005 598 1005 592 1007 c 1,52,-1
 592 581 l 1,0,1
EndSplineSet
EndChar

StartChar: bullet
Encoding: 8226 8226 319
Width: 1120
GlyphClass: 2
Flags: W
LayerCount: 2
Fore
SplineSet
1053 726 m 0,0,1
 1053 329 1053 329 806 232 c 0,2,3
 712 195 712 195 571 195 c 128,-1,4
 430 195 430 195 331 228.5 c 128,-1,5
 232 262 232 262 175 332 c 128,-1,6
 118 402 118 402 94.5 496.5 c 128,-1,7
 71 591 71 591 71 726 c 0,8,9
 71 1009 71 1009 188 1131.5 c 128,-1,10
 305 1254 305 1254 567.5 1254 c 128,-1,11
 830 1254 830 1254 941.5 1124.5 c 128,-1,12
 1053 995 1053 995 1053 726 c 0,0,1
EndSplineSet
EndChar

StartChar: ellipsis
Encoding: 8230 8230 320
Width: 2010
GlyphClass: 2
Flags: W
LayerCount: 2
Fore
SplineSet
136 171 m 128,-1,1
 136 270 136 270 196.5 325.5 c 128,-1,2
 257 381 257 381 340 381 c 128,-1,3
 423 381 423 381 483.5 325.5 c 128,-1,4
 544 270 544 270 544 171 c 128,-1,5
 544 72 544 72 483.5 16.5 c 128,-1,6
 423 -39 423 -39 340 -39 c 128,-1,7
 257 -39 257 -39 196.5 16.5 c 128,-1,0
 136 72 136 72 136 171 c 128,-1,1
806 171 m 128,-1,9
 806 270 806 270 866.5 325.5 c 128,-1,10
 927 381 927 381 1010 381 c 128,-1,11
 1093 381 1093 381 1153.5 325.5 c 128,-1,12
 1214 270 1214 270 1214 171 c 128,-1,13
 1214 72 1214 72 1153.5 16.5 c 128,-1,14
 1093 -39 1093 -39 1010 -39 c 128,-1,15
 927 -39 927 -39 866.5 16.5 c 128,-1,8
 806 72 806 72 806 171 c 128,-1,9
1476 171 m 128,-1,17
 1476 270 1476 270 1536.5 325.5 c 128,-1,18
 1597 381 1597 381 1680 381 c 128,-1,19
 1763 381 1763 381 1823.5 325.5 c 128,-1,20
 1884 270 1884 270 1884 171 c 128,-1,21
 1884 72 1884 72 1823.5 16.5 c 128,-1,22
 1763 -39 1763 -39 1680 -39 c 128,-1,23
 1597 -39 1597 -39 1536.5 16.5 c 128,-1,16
 1476 72 1476 72 1476 171 c 128,-1,17
EndSplineSet
EndChar

StartChar: guilsinglleft
Encoding: 8249 8249 321
Width: 1036
GlyphClass: 2
Flags: W
LayerCount: 2
Fore
SplineSet
760 213 m 2,0,-1
 234 593 l 1,1,2
 144 656 144 656 145 776 c 128,-1,3
 146 896 146 896 234 961 c 1,4,-1
 760 1341 l 2,5,6
 792 1364 792 1364 826 1364 c 128,-1,7
 860 1364 860 1364 883 1339 c 128,-1,8
 906 1314 906 1314 906 1277.5 c 128,-1,9
 906 1241 906 1241 882 1209 c 2,10,-1
 548 777 l 1,11,-1
 882 345 l 2,12,13
 904 317 904 317 904 279 c 128,-1,14
 904 241 904 241 881 215.5 c 128,-1,15
 858 190 858 190 824.5 190 c 128,-1,16
 791 190 791 190 760 213 c 2,0,-1
EndSplineSet
EndChar

StartChar: guilsinglright
Encoding: 8250 8250 322
Width: 1034
GlyphClass: 2
Flags: W
LayerCount: 2
Fore
SplineSet
816 593 m 1,0,-1
 290 213 l 2,1,2
 259 190 259 190 225.5 190 c 128,-1,3
 192 190 192 190 169 215.5 c 128,-1,4
 146 241 146 241 146 279 c 128,-1,5
 146 317 146 317 168 345 c 2,6,-1
 502 777 l 1,7,-1
 168 1209 l 2,8,9
 144 1241 144 1241 144 1277.5 c 128,-1,10
 144 1314 144 1314 167 1339 c 128,-1,11
 190 1364 190 1364 224 1364 c 128,-1,12
 258 1364 258 1364 290 1341 c 2,13,-1
 816 961 l 1,14,15
 904 896 904 896 905 776 c 128,-1,16
 906 656 906 656 816 593 c 1,0,-1
EndSplineSet
EndChar

StartChar: uni2074
Encoding: 8308 8308 323
Width: 1298
GlyphClass: 2
Flags: W
LayerCount: 2
Fore
SplineSet
1096 130 m 1,0,-1
 737 130 l 1,1,-1
 737 291 l 1,2,-1
 221 291 l 1,3,-1
 221 571 l 1,4,-1
 391 1172 l 1,5,-1
 776 1172 l 1,6,-1
 607 571 l 1,7,-1
 607 535 l 1,8,-1
 737 535 l 1,9,-1
 737 760 l 1,10,-1
 1096 760 l 1,11,-1
 1096 130 l 1,0,-1
EndSplineSet
EndChar

StartChar: Euro
Encoding: 8364 8364 324
Width: 1432
GlyphClass: 2
Flags: W
LayerCount: 2
Fore
SplineSet
0 705 m 1,0,-1
 90 705 l 1,1,-1
 90 843 l 1,2,-1
 0 843 l 1,3,-1
 0 987 l 1,4,-1
 90 987 l 1,5,-1
 90 1226 l 2,6,7
 90 1445 90 1445 262 1538.5 c 128,-1,8
 434 1632 434 1632 741.5 1632 c 128,-1,9
 1049 1632 1049 1632 1187 1592 c 128,-1,10
 1325 1552 1325 1552 1398.5 1465 c 128,-1,11
 1472 1378 1472 1378 1472 1227 c 2,12,-1
 1472 1139 l 1,13,-1
 868 1139 l 1,14,-1
 868 1356 l 1,15,-1
 695 1356 l 1,16,-1
 695 988 l 1,17,-1
 1037 988 l 1,18,-1
 1037 843 l 1,19,-1
 695 843 l 1,20,-1
 695 706 l 1,21,-1
 1037 706 l 1,22,-1
 1037 561 l 1,23,-1
 695 561 l 1,24,-1
 695 233 l 1,25,-1
 868 233 l 1,26,-1
 868 451 l 1,27,-1
 1472 451 l 1,28,-1
 1472 369 l 2,29,30
 1472 32 1472 32 1054 -24 c 0,31,32
 936 -40 936 -40 826.5 -40 c 128,-1,33
 717 -40 717 -40 660 -38 c 0,34,35
 314 -22 314 -22 171 131 c 0,36,37
 90 219 90 219 90 370 c 2,38,-1
 90 561 l 1,39,-1
 0 561 l 1,40,-1
 0 705 l 1,0,-1
EndSplineSet
EndChar

StartChar: trademark
Encoding: 8482 8482 325
Width: 1884
GlyphClass: 2
Flags: W
LayerCount: 2
Fore
SplineSet
745 1595 m 1,0,-1
 745 1453 l 1,1,-1
 582 1453 l 1,2,-1
 582 657 l 1,3,-1
 209 657 l 1,4,-1
 209 1453 l 1,5,-1
 47 1453 l 1,6,-1
 47 1595 l 1,7,-1
 745 1595 l 1,0,-1
1238 657 m 1,8,-1
 1160 951 l 1,9,-1
 1160 657 l 1,10,-1
 789 657 l 1,11,-1
 789 1595 l 1,12,-1
 1223 1595 l 1,13,-1
 1291 1158 l 1,14,-1
 1351 1595 l 1,15,-1
 1791 1595 l 1,16,-1
 1791 657 l 1,17,-1
 1421 657 l 1,18,-1
 1421 951 l 1,19,-1
 1342 657 l 1,20,-1
 1238 657 l 1,8,-1
EndSplineSet
EndChar

StartChar: glyph327
Encoding: 65539 -1 326
Width: 706
GlyphClass: 2
Flags: W
LayerCount: 2
Fore
SplineSet
209 -441.5 m 128,-1,1
 157 -387 157 -387 157 -294 c 128,-1,2
 157 -201 157 -201 217.5 -148 c 128,-1,3
 278 -95 278 -95 371 -95 c 128,-1,4
 464 -95 464 -95 517.5 -163 c 128,-1,5
 571 -231 571 -231 571 -318 c 128,-1,6
 571 -405 571 -405 547.5 -475.5 c 128,-1,7
 524 -546 524 -546 481 -605 c 128,-1,8
 438 -664 438 -664 370.5 -701 c 128,-1,9
 303 -738 303 -738 224 -738 c 0,10,11
 202 -738 202 -738 180 -735 c 1,12,-1
 180 -626 l 1,13,14
 243 -625 243 -625 287.5 -592.5 c 128,-1,15
 332 -560 332 -560 336 -504 c 1,16,0
 261 -496 261 -496 209 -441.5 c 128,-1,1
EndSplineSet
EndChar

StartChar: glyph328
Encoding: 65540 -1 327
Width: 380
GlyphClass: 2
Flags: W
LayerCount: 2
Fore
SplineSet
35 -441.5 m 128,-1,1
 -17 -387 -17 -387 -17 -294 c 128,-1,2
 -17 -201 -17 -201 43.5 -148 c 128,-1,3
 104 -95 104 -95 197 -95 c 128,-1,4
 290 -95 290 -95 343.5 -163 c 128,-1,5
 397 -231 397 -231 397 -318 c 128,-1,6
 397 -405 397 -405 373.5 -475.5 c 128,-1,7
 350 -546 350 -546 307 -605 c 128,-1,8
 264 -664 264 -664 196.5 -701 c 128,-1,9
 129 -738 129 -738 50 -738 c 0,10,11
 28 -738 28 -738 6 -735 c 1,12,-1
 6 -626 l 1,13,14
 69 -625 69 -625 113.5 -592.5 c 128,-1,15
 158 -560 158 -560 162 -504 c 1,16,0
 87 -496 87 -496 35 -441.5 c 128,-1,1
EndSplineSet
EndChar

StartChar: glyph329
Encoding: 65541 -1 328
Width: 1342
GlyphClass: 2
Flags: W
LayerCount: 2
Fore
SplineSet
288 -95 m 0,0,1
 391 -95 391 -95 391 -14 c 0,2,3
 391 22 391 22 370 90 c 2,4,-1
 10 1300 l 1,5,-1
 563 1300 l 1,6,-1
 628 613 l 1,7,-1
 645 267 l 1,8,-1
 694 267 l 1,9,-1
 711 613 l 1,10,-1
 781 1300 l 1,11,-1
 1333 1300 l 1,12,-1
 933 -26 l 2,13,14
 876 -215 876 -215 750.5 -307.5 c 128,-1,15
 625 -400 625 -400 407 -400 c 0,16,17
 300 -400 300 -400 172 -378 c 1,18,-1
 135 -73 l 1,19,20
 229 -95 229 -95 288 -95 c 0,0,1
EndSplineSet
EndChar
